<?xml version="1.0" encoding="UTF-8" standalone="no"?>
<!-- Created with Inkscape (http://www.inkscape.org/) -->

<svg
   xmlns:dc="http://purl.org/dc/elements/1.1/"
   xmlns:cc="http://creativecommons.org/ns#"
   xmlns:rdf="http://www.w3.org/1999/02/22-rdf-syntax-ns#"
   xmlns:svg="http://www.w3.org/2000/svg"
   xmlns="http://www.w3.org/2000/svg"
   xmlns:sodipodi="http://sodipodi.sourceforge.net/DTD/sodipodi-0.dtd"
   xmlns:inkscape="http://www.inkscape.org/namespaces/inkscape"
   width="631.82831"
   height="356.40314"
   id="svg2"
   version="1.1"
   inkscape:version="0.48.2 r9819"
   sodipodi:docname="Arda_Signature.svg">
  <title
     id="title3761">Arda's Signature</title>
  <defs
     id="defs4" />
  <sodipodi:namedview
     id="base"
     pagecolor="#ffffff"
     bordercolor="#666666"
     borderopacity="1.0"
     inkscape:pageopacity="0.0"
     inkscape:pageshadow="2"
     inkscape:zoom="1.7085373"
     inkscape:cx="279.57221"
     inkscape:cy="194.87378"
     inkscape:document-units="px"
     inkscape:current-layer="layer1"
     showgrid="false"
     showguides="true"
     inkscape:guide-bbox="true"
     fit-margin-top="10"
     fit-margin-left="10"
     fit-margin-right="10"
     fit-margin-bottom="10"
     inkscape:window-width="1912"
     inkscape:window-height="1127"
     inkscape:window-x="0"
     inkscape:window-y="1"
     inkscape:window-maximized="1">
    <sodipodi:guide
       orientation="0,1"
       position="11810.155,-276.16398"
       id="guide3897" />
  </sodipodi:namedview>
  <metadata
     id="metadata7">
    <rdf:RDF>
      <cc:Work
         rdf:about="">
        <dc:format>image/svg+xml</dc:format>
        <dc:type
           rdf:resource="http://purl.org/dc/dcmitype/StillImage" />
        <dc:title>Arda's Signature</dc:title>
        <dc:description>See Copying for details.</dc:description>
      </cc:Work>
    </rdf:RDF>
  </metadata>
  <g
     inkscape:label="Layer 1"
     inkscape:groupmode="layer"
     id="layer1"
     transform="translate(10898.516,-983.53125)">
    <path
       style="fill:#dc6d3c;fill-opacity:1;stroke:#c08453;stroke-width:1.022;stroke-linecap:round;stroke-miterlimit:2.29999995;stroke-opacity:1;stroke-dasharray:none;stroke-dashoffset:0"
       id="path3979"
       d="m -10528.364,993.56368 c -6.765,9.97352 -11.916,20.90702 -17.065,31.76662 -9.336,20.4837 -18.628,41.0113 -29.76,60.6038 -2.863,5.0399 -5.902,9.978 -8.853,14.967 -18.343,29.7422 -40.586,56.8229 -64.482,82.2424 -5.162,5.4908 -10.483,10.8299 -15.725,16.2448 -25.368,25.9696 -52.557,50.0293 -79.88,73.8949 0,0 0.137,-0.1866 0.137,-0.1866 l 0,0 c 26.66,-23.2869 52.872,-47.1045 77.778,-72.2757 5.212,-5.3903 10.501,-10.7071 15.636,-16.1708 23.81,-25.3356 46.001,-52.3087 64.23,-81.9836 2.948,-4.9814 5.988,-9.9087 8.842,-14.9443 11.085,-19.5603 20.264,-40.0947 29.65,-60.4986 5.211,-10.8988 10.311,-21.9546 17.196,-31.92824 0,0 2.296,-1.73168 2.296,-1.73168 z"
       inkscape:connector-curvature="0" />
    <path
       style="fill:#dc6d3c;fill-opacity:1;stroke:#c08453;stroke-width:1.053;stroke-linecap:round;stroke-miterlimit:1.70000005;stroke-opacity:1;stroke-dasharray:none;stroke-dashoffset:0"
       id="path3981"
       d="m -10577.454,1010.6577 c 10.117,-3.7504 20.816,-5.5912 31.402,-7.4637 14.881,-2.0629 30.368,-4.28304 45.28,-1.1011 2.408,0.5138 4.727,1.3797 7.091,2.0695 1.96,0.9908 4.051,1.7572 5.88,2.9723 5.016,3.3313 8.46,8.4712 8.991,14.5495 0.517,5.9115 -0.854,8.1822 -2.631,13.8347 -1.449,2.5697 -2.666,5.2852 -4.349,7.7089 -9.73,14.0198 -25.015,24.507 -39.773,32.5871 -4.41,2.4145 -8.968,4.548 -13.452,6.822 -14.27,6.7593 -28.985,12.508 -43.76,18.0477 -9.752,3.6559 -16.087,5.7758 -25.63,9.5641 -3.185,1.2646 -6.324,2.645 -9.485,3.9675 3.844,1.8304 -10.724,2.7431 -9.075,5.9661 0.569,1.1133 2.353,-1.1197 3.602,-1.0477 1.477,0.085 2.736,1.1695 4.179,1.4966 5.804,1.3155 12.171,1.4919 18.026,1.9142 24.216,1.1707 48.546,0.1903 72.695,2.7315 4.187,0.4406 8.339,1.1653 12.509,1.748 8.15,1.9467 23.304,4.7387 25.139,15.2452 0.889,5.0873 -1.363,7.7572 -3.479,12.1601 -1.912,2.3005 -3.622,4.7852 -5.737,6.9014 -3.491,3.4944 -7.152,6.8379 -11.038,9.8879 -6.622,5.1979 -17.417,11.2879 -24.657,15.0272 -13.405,6.9243 -21.589,10.1467 -35.685,16.235 -31.665,12.9817 -63.678,25.0897 -95.227,38.3555 -23.009,9.6746 -26.876,11.5812 -49.483,21.7539 -21.534,9.8399 -42.746,20.3588 -63.949,30.8856 -11.262,5.5912 -22.721,11.3883 -34.11,16.7395 -4.9,2.3021 -9.857,4.4819 -14.785,6.7229 -11.699,4.8528 -23.563,9.8809 -36.129,12.0652 -4.773,0.8298 -11.257,1.4859 -16.113,-0.096 -1.803,-0.5872 -3.249,-1.9557 -4.873,-2.9335 -0.764,-1.6536 -2.048,-3.1557 -2.29,-4.9608 -0.692,-5.1638 2.041,-11.103 4.523,-15.2335 4.248,-7.0682 10.21,-13.4526 16.308,-18.903 4.481,-4.006 9.317,-7.5967 13.976,-11.395 17.225,-11.5912 36.621,-19.0851 57.14,-22.2181 13.12,-2.0032 17.417,-1.5636 30.65,-1.6723 22.196,0.7874 43.998,5.2747 65.751,9.3857 25.546,4.8278 12.37,2.4369 38.803,7.0284 39.405,6.5287 79.405,9.6135 119.343,7.937 9.255,-0.3885 18.486,-1.2264 27.729,-1.8396 62.108,-5.5601 122.597,-21.3939 183.041,-35.9398 37.156,-9.0837 19.023,-4.7168 54.395,-13.119 0,0 -0.147,0.1797 -0.147,0.1797 l 0,0 c -35.389,8.4066 -17.241,4.0233 -54.437,13.1724 -60.745,15.4498 -121.736,31.2481 -184.28,37.4016 -9.277,0.6477 -18.541,1.517 -27.831,1.9431 -40.08,1.8385 -80.235,-1.1005 -119.816,-7.4689 -24.404,-4.1483 -15.277,-2.4881 -38.907,-6.9194 -21.737,-4.0765 -43.514,-8.6115 -65.693,-9.3582 -13.038,0.098 -17.631,-0.3444 -30.557,1.6562 -20.552,3.1813 -39.966,10.7951 -57.163,22.4868 -3.055,2.2267 -6.312,4.2003 -9.166,6.6803 -5.852,5.0863 -11.931,11.7543 -15.97,18.4818 -2.386,3.9731 -4.987,9.7149 -4.419,14.673 0.199,1.7356 1.366,3.2158 2.049,4.8236 1.549,0.9729 2.916,2.3266 4.647,2.9186 4.772,1.6324 11.067,1.0349 15.788,0.2431 12.473,-2.0916 24.235,-7.0805 35.855,-11.837 4.888,-2.195 9.804,-4.3302 14.666,-6.585 32.686,-15.16 64.503,-32.1551 97.431,-46.809 22.365,-10.0073 26.675,-12.0797 49.428,-21.6731 31.709,-13.3693 63.849,-25.6745 95.628,-38.8723 16.914,-7.4148 33.944,-14.5939 49.682,-24.3675 1.982,-1.2309 13.538,-8.9731 16.716,-12.1331 2.09,-2.0774 3.801,-4.5028 5.702,-6.7543 2.207,-4.352 4.448,-6.9732 3.872,-12.0541 -1.228,-10.8521 -15.504,-13.923 -23.775,-16.1961 -4.103,-0.6521 -8.181,-1.4779 -12.308,-1.9564 -10.233,-1.1865 -19.414,-1.3638 -29.732,-1.532 -14.563,-0.2375 -29.131,0.044 -43.691,-0.3511 -5.118,-0.2455 -13.248,-0.4008 -18.595,-1.4094 -1.6,-0.3018 -3.993,0.019 -4.661,-1.4661 -1.101,-2.449 2.618,-6.2189 4.397,-7.2963 1.928,-1.1677 4.055,-1.9682 6.083,-2.9523 26.224,-10.3489 53.059,-19.2276 78.595,-31.2615 4.475,-2.2728 9.03,-4.3952 13.426,-6.8183 13.039,-7.1875 27.011,-16.1214 35.697,-28.5554 1.668,-2.3888 2.878,-5.0678 4.317,-7.6017 1.792,-5.6444 3.101,-7.7067 2.62,-13.5968 -0.492,-6.0215 -3.754,-11.0901 -8.662,-14.4905 -1.778,-1.2318 -3.815,-2.0388 -5.723,-3.0582 -2.329,-0.7077 -4.611,-1.5963 -6.988,-2.1231 -14.887,-3.2997 -30.376,-1.0435 -45.219,1.1725 -10.774,2.0455 -21.691,4.0781 -31.899,8.2154 0,0 2.297,-2.9385 2.297,-2.9385 z"
       inkscape:connector-curvature="0" />
  </g>
</svg>
