<?xml version="1.0" encoding="UTF-8" standalone="no"?>
<!-- Created with Inkscape (http://www.inkscape.org/) -->

<svg
   xmlns:dc="http://purl.org/dc/elements/1.1/"
   xmlns:cc="http://creativecommons.org/ns#"
   xmlns:rdf="http://www.w3.org/1999/02/22-rdf-syntax-ns#"
   xmlns:svg="http://www.w3.org/2000/svg"
   xmlns="http://www.w3.org/2000/svg"
   xmlns:sodipodi="http://sodipodi.sourceforge.net/DTD/sodipodi-0.dtd"
   xmlns:inkscape="http://www.inkscape.org/namespaces/inkscape"
   version="1.0"
   width="480"
   height="321"
   id="svg10969"
   inkscape:version="0.48.3.1 r9886"
   sodipodi:docname="Railgun.svg">
  <metadata
     id="metadata103">
    <rdf:RDF>
      <cc:Work
         rdf:about="">
        <dc:format>image/svg+xml</dc:format>
        <dc:type
           rdf:resource="http://purl.org/dc/dcmitype/StillImage" />
      </cc:Work>
    </rdf:RDF>
  </metadata>
  <sodipodi:namedview
     pagecolor="#ffffff"
     bordercolor="#666666"
     borderopacity="1"
     objecttolerance="10"
     gridtolerance="10"
     guidetolerance="10"
     inkscape:pageopacity="0"
     inkscape:pageshadow="2"
     inkscape:window-width="1920"
     inkscape:window-height="1145"
     id="namedview101"
     showgrid="false"
     inkscape:zoom="2.0794667"
     inkscape:cx="180.37486"
     inkscape:cy="115.90541"
     inkscape:window-x="0"
     inkscape:window-y="0"
     inkscape:window-maximized="1"
     inkscape:current-layer="svg10969" />
  <defs
     id="defs10971">
    <marker
       refX="0"
       refY="0"
       orient="auto"
       style="overflow:visible"
       id="Arrow2Mend">
      <path
         d="M 8.7185878,4.0337352 L -2.2072895,0.016013256 L 8.7185884,-4.0017078 C 6.97309,-1.6296469 6.9831476,1.6157441 8.7185878,4.0337352 z "
         transform="scale(-0.6,-0.6)"
         style="font-size:12px;fill-rule:evenodd;stroke-width:0.625;stroke-linejoin:round"
         id="path4632" />
    </marker>
    <marker
       refX="0"
       refY="0"
       orient="auto"
       style="overflow:visible"
       id="Arrow2Sstart">
      <path
         d="M 8.7185878,4.0337352 L -2.2072895,0.016013256 L 8.7185884,-4.0017078 C 6.97309,-1.6296469 6.9831476,1.6157441 8.7185878,4.0337352 z "
         transform="matrix(0.3,0,0,0.3,-0.69,0)"
         style="font-size:12px;fill-rule:evenodd;stroke-width:0.625;stroke-linejoin:round"
         id="path4635" />
    </marker>
    <marker
       refX="0"
       refY="0"
       orient="auto"
       style="overflow:visible"
       id="Arrow2Send">
      <path
         d="M 8.7185878,4.0337352 L -2.2072895,0.016013256 L 8.7185884,-4.0017078 C 6.97309,-1.6296469 6.9831476,1.6157441 8.7185878,4.0337352 z "
         transform="matrix(-0.3,0,0,-0.3,0.69,0)"
         style="font-size:12px;fill-rule:evenodd;stroke-width:0.625;stroke-linejoin:round"
         id="path4638" />
    </marker>
    <marker
       refX="0"
       refY="0"
       orient="auto"
       style="overflow:visible"
       id="Arrow2Mstart">
      <path
         d="M 8.7185878,4.0337352 L -2.2072895,0.016013256 L 8.7185884,-4.0017078 C 6.97309,-1.6296469 6.9831476,1.6157441 8.7185878,4.0337352 z "
         transform="scale(0.6,0.6)"
         style="font-size:12px;fill-rule:evenodd;stroke-width:0.625;stroke-linejoin:round"
         id="path4629" />
    </marker>
  </defs>
  <g
     id="g11089"
     style="fill:#0a51a1;fill-opacity:1"
     transform="translate(-160,-623.29077)">
    <path
       inkscape:connector-curvature="0"
       id="path11013"
       style="fill:#0a51a1;fill-opacity:1;stroke:none"
       d="m 340.08652,803.70121 0.06,0.0388 1.14722,0.61147 0.0599,0.0388 1.15133,0.54897 0.03,0.0194 1.15545,0.48647 0.03,0.0194 0.57978,0.21198 -0.35194,-2.24759 -0.51778,-0.20447 -0.062,-0.008 -1.0335,-0.4402 -0.0599,-0.0388 -1.03144,-0.47144 0.002,-0.0312 -1.11725,-0.59209 -0.06,-0.0388 -1.05318,-0.61583 -0.06,-0.0388 -1.07904,-0.69771 -0.03,-0.0194 -1.07286,-0.79145 -0.03,-0.0194 -1.04083,-0.80332 -0.06,-0.0388 -1.00674,-0.84645 -0.06,-0.0388 -1.00262,-0.90894 -0.03,-0.0194 -0.46928,-0.46635 -0.63718,1.60803 0.49925,0.48572 0.06,0.0388 1.09049,0.99834 0.0599,0.0388 1.09666,0.90459 0.0579,0.07 1.13076,0.86147 0.0599,0.0388 1.13281,0.83022 0.06,0.0388 1.16896,0.75585 0.06,0.0388 1.17307,0.69335 z m 8.14492,3.01841 0.032,-0.0119 1.05409,0.12769 0.032,-0.0119 1.02618,0.0771 0.032,-0.0119 1.00031,-0.005 0.032,-0.0119 0.9724,-0.0554 0.032,-0.0119 0.94655,-0.13733 0.032,-0.0119 0.92069,-0.21921 0.032,-0.0119 0.8628,-0.28922 0.032,-0.0119 0.86486,-0.32047 0.032,-0.0119 0.80903,-0.42173 0.032,-0.0119 0.75114,-0.49174 0.032,-0.0119 0.0661,-0.055 -1.48245,-2.16405 -0.0341,0.0431 -0.032,0.0119 -0.715,0.41738 -0.032,0.0119 -0.74497,0.398 -0.032,0.0119 -0.77082,0.31611 -0.03,-0.0194 -0.002,0.0312 -0.79874,0.26548 -0.032,0.0119 -0.8246,0.1836 -0.032,0.0119 -0.88248,0.11359 -0.032,0.0119 -0.88043,0.0823 -0.032,0.0119 -0.90628,4.6e-4 -0.062,-0.008 -0.9342,-0.0502 -0.032,0.0119 -0.96005,-0.13205 -0.032,0.0119 -0.06,-0.0388 0.65785,2.34764 0.092,0.0269 z m -18.51578,-13.99232 -0.06,-0.0388 -0.0279,-0.0506 -0.86832,-1.05018 -0.0579,-0.07 -0.83423,-1.09329 -0.0279,-0.0506 -0.83217,-1.12454 -0.0279,-0.0506 -0.79809,-1.16766 -0.0279,-0.0506 -0.76605,-1.17953 -0.0279,-0.0506 -0.73401,-1.1914 -0.0279,-0.0506 -0.66995,-1.21514 -0.0279,-0.0506 -0.66789,-1.24639 -0.0279,-0.0506 -0.60589,-1.23888 -0.0259,-0.0819 -0.60383,-1.27012 0.002,-0.0312 -0.13752,-0.28441 -1.63478,0.14845 0.13546,0.31566 0.0259,0.0819 0.62969,1.35201 0.0279,0.0506 0.68964,1.39076 0.0279,0.0506 0.69375,1.32826 0.0279,0.0506 0.75576,1.33578 0.0279,0.0506 0.78985,1.29266 0.0279,0.0506 0.82188,1.28079 0.0579,0.07 0.85391,1.26892 0.0279,0.0506 0.888,1.22581 0.0279,0.0506 0.95206,1.20206 0.0279,0.0506 0.95412,1.17082 0.0279,0.0506 0.0879,0.0894 0.93073,-1.32047 z m 30.84187,9.5164 0.032,-0.0119 0.55163,-0.78366 0.0341,-0.0431 0.52371,-0.83428 0.002,-0.0312 0.46788,-0.93556 0.032,-0.0119 0.40793,-0.97432 0.0341,-0.0431 0.38002,-1.02494 0.002,-0.0312 0.32213,-1.09495 0.002,-0.0312 0.26424,-1.16497 0.032,-0.0119 0.20429,-1.20372 0.004,-0.0625 0.14435,-1.24249 -1.91006,-1.36537 -0.14229,1.21124 -0.004,0.0625 -0.19812,1.10998 -0.002,0.0312 -0.25807,1.07121 -0.002,0.0312 -0.31801,1.03246 0.03,0.0194 -0.37384,0.93119 -0.004,0.0625 -0.40176,0.88056 -0.002,0.0312 -0.43173,0.86118 -0.032,0.0119 -0.48961,0.79117 -0.002,0.0312 -0.54751,0.72116 -0.002,0.0312 -0.33678,0.36869 1.64672,2.0422 0.3409,-0.43119 z m -40.42693,-26.72649 -0.15514,-0.49129 -0.0279,-0.0506 -0.37961,-1.35321 -0.03,-0.0194 -0.32172,-1.2832 0.002,-0.0312 -0.28969,-1.29507 -0.28557,-1.35757 0.03,0.0194 -0.22562,-1.31881 0.004,-0.0625 -0.1357,-1.26066 0.002,-0.0312 -0.10368,-1.27254 0.002,-0.0312 -0.0437,-1.23377 0.004,-0.0625 -0.0138,-1.21439 0.004,-0.0625 0.0268,-0.40625 -1.92036,-1.20912 -0.0288,0.4375 -0.004,0.0625 0.006,1.33939 -0.002,0.0312 0.0376,1.32753 0.0259,0.0819 0.0995,1.33503 -0.004,0.0625 0.16156,1.34255 -0.004,0.0625 0.22151,1.38131 -0.002,0.0312 0.25148,1.40068 0.0279,0.0506 0.31348,1.40819 -0.002,0.0312 0.37549,1.41572 -0.002,0.0312 0.40752,1.40384 0.0279,0.0506 0.18305,0.54191 1.76818,0.19846 z" />
    <path
       inkscape:connector-curvature="0"
       id="path11095"
       style="font-size:12px;fill:#0a51a1;fill-opacity:1;fill-rule:evenodd;stroke-width:0.625;stroke-linejoin:round"
       d="m 360.36718,794.22614 2.93495,-4.85479 1.67711,7.99467 c -1.261,-1.9533 -3.12432,-3.21553 -4.61206,-3.13988 z" />
  </g>
  <g
     id="g11073"
     style="fill:#0a51a1;fill-opacity:1"
     transform="translate(-160,-623.29077)">
    <path
       inkscape:connector-curvature="0"
       id="path11007"
       style="fill:#0a51a1;fill-opacity:1;stroke:none"
       d="m 380.12783,780.53351 0.0599,0.0388 1.14722,0.61147 0.06,0.0388 1.15133,0.54897 0.03,0.0194 1.15545,0.48647 0.03,0.0194 0.57978,0.21198 -0.35194,-2.24759 -0.51778,-0.20447 -0.062,-0.008 -1.0335,-0.4402 -0.06,-0.0388 -1.03144,-0.47144 0.002,-0.0312 -1.11725,-0.59209 -0.06,-0.0388 -1.05318,-0.61583 -0.06,-0.0388 -1.07904,-0.69771 -0.03,-0.0194 -1.07286,-0.79145 -0.03,-0.0194 -1.04083,-0.80332 -0.06,-0.0388 -1.00674,-0.84645 -0.06,-0.0388 -1.00262,-0.90894 -0.03,-0.0194 -0.46928,-0.46635 -0.63718,1.60803 0.49925,0.48572 0.06,0.0388 1.09049,0.99834 0.0599,0.0388 1.09666,0.90459 0.0579,0.07 1.13076,0.86147 0.0599,0.0388 1.13281,0.83022 0.0599,0.0388 1.16896,0.75585 0.06,0.0388 1.17307,0.69335 z m 8.14492,3.01841 0.032,-0.0119 1.05409,0.12769 0.032,-0.0119 1.02618,0.0771 0.032,-0.0119 1.00031,-0.005 0.032,-0.0119 0.9724,-0.0554 0.032,-0.0119 0.94655,-0.13733 0.032,-0.0119 0.92069,-0.21921 0.032,-0.0119 0.8628,-0.28922 0.032,-0.0119 0.86486,-0.32047 0.032,-0.0119 0.80903,-0.42173 0.032,-0.0119 0.75114,-0.49174 0.032,-0.0119 0.0661,-0.055 -1.48245,-2.16405 -0.0341,0.0431 -0.032,0.0119 -0.715,0.41738 -0.032,0.0119 -0.74497,0.398 -0.032,0.0119 -0.77082,0.31611 -0.03,-0.0194 -0.002,0.0312 -0.79874,0.26548 -0.032,0.0119 -0.8246,0.1836 -0.032,0.0119 -0.88248,0.11359 -0.032,0.0119 -0.88043,0.0823 -0.032,0.0119 -0.90628,4.6e-4 -0.062,-0.008 -0.9342,-0.0502 -0.032,0.0119 -0.96005,-0.13205 -0.032,0.0119 -0.06,-0.0388 0.65785,2.34764 0.092,0.0269 z m -18.51578,-13.99232 -0.06,-0.0388 -0.0279,-0.0506 -0.86832,-1.05018 -0.0579,-0.07 -0.83423,-1.09329 -0.0279,-0.0506 -0.83217,-1.12454 -0.0279,-0.0506 -0.79809,-1.16766 -0.0279,-0.0506 -0.76605,-1.17953 -0.0279,-0.0506 -0.73401,-1.1914 -0.0279,-0.0506 -0.66995,-1.21514 -0.0279,-0.0506 -0.66789,-1.24639 -0.0279,-0.0506 -0.60589,-1.23888 -0.0259,-0.0819 -0.60383,-1.27012 0.002,-0.0312 -0.13752,-0.28441 -1.63478,0.14845 0.13546,0.31566 0.0259,0.0819 0.62969,1.35201 0.0279,0.0506 0.68964,1.39076 0.0279,0.0506 0.69375,1.32826 0.0279,0.0506 0.75576,1.33578 0.0279,0.0506 0.78985,1.29266 0.0279,0.0506 0.82188,1.28079 0.0579,0.07 0.85391,1.26892 0.0279,0.0506 0.888,1.22581 0.0279,0.0506 0.95206,1.20206 0.0279,0.0506 0.95412,1.17082 0.0279,0.0506 0.0879,0.0894 0.93073,-1.32047 z m 30.84187,9.5164 0.032,-0.0119 0.55163,-0.78366 0.0341,-0.0431 0.52371,-0.83428 0.002,-0.0312 0.46788,-0.93556 0.032,-0.0119 0.40793,-0.97432 0.0341,-0.0431 0.38002,-1.02494 0.002,-0.0312 0.32213,-1.09495 0.002,-0.0312 0.26424,-1.16497 0.032,-0.0119 0.20429,-1.20372 0.004,-0.0625 0.14435,-1.24249 -1.91006,-1.36537 -0.14229,1.21124 -0.004,0.0625 -0.19812,1.10998 -0.002,0.0312 -0.25807,1.07121 -0.002,0.0312 -0.31801,1.03246 0.03,0.0194 -0.37384,0.93119 -0.004,0.0625 -0.40176,0.88056 -0.002,0.0312 -0.43173,0.86118 -0.032,0.0119 -0.48961,0.79117 -0.002,0.0312 -0.54751,0.72116 -0.002,0.0312 -0.33678,0.36869 1.64672,2.0422 0.3409,-0.43119 z m -40.42693,-26.72649 -0.15514,-0.49129 -0.0279,-0.0506 -0.37961,-1.35321 -0.03,-0.0194 -0.32172,-1.2832 0.002,-0.0312 -0.28969,-1.29507 -0.28557,-1.35757 0.03,0.0194 -0.22562,-1.31881 0.004,-0.0625 -0.1357,-1.26066 0.002,-0.0312 -0.10368,-1.27254 0.002,-0.0312 -0.0437,-1.23377 0.004,-0.0625 -0.0138,-1.21439 0.004,-0.0625 0.0268,-0.40625 -1.92036,-1.20912 -0.0288,0.4375 -0.004,0.0625 0.006,1.33939 -0.002,0.0312 0.0376,1.32753 0.0259,0.0819 0.0995,1.33503 -0.004,0.0625 0.16156,1.34255 -0.004,0.0625 0.22151,1.38131 -0.002,0.0312 0.25148,1.40068 0.0279,0.0506 0.31348,1.40819 -0.002,0.0312 0.37549,1.41572 -0.002,0.0312 0.40752,1.40384 0.0279,0.0506 0.18305,0.54191 1.76818,0.19846 z" />
    <path
       inkscape:connector-curvature="0"
       id="path11079"
       style="font-size:12px;fill:#0a51a1;fill-opacity:1;fill-rule:evenodd;stroke-width:0.625;stroke-linejoin:round"
       d="m 400.40849,771.05844 2.93495,-4.85479 1.67711,7.99467 c -1.261,-1.9533 -3.12432,-3.21553 -4.61206,-3.13988 z" />
  </g>
  <g
     id="g11057"
     style="fill:#0a51a1;fill-opacity:1"
     transform="translate(-160,-623.29077)">
    <path
       inkscape:connector-curvature="0"
       id="path10997"
       style="fill:#0a51a1;fill-opacity:1;stroke:none"
       d="m 420.16913,757.36579 0.06,0.0388 1.14722,0.61147 0.0599,0.0388 1.15133,0.54897 0.03,0.0194 1.15545,0.48647 0.03,0.0194 0.57978,0.21198 -0.35194,-2.24759 -0.51778,-0.20447 -0.062,-0.008 -1.0335,-0.4402 -0.0599,-0.0388 -1.03144,-0.47144 0.002,-0.0312 -1.11725,-0.59209 -0.06,-0.0388 -1.05318,-0.61583 -0.06,-0.0388 -1.07904,-0.69771 -0.03,-0.0194 -1.07286,-0.79145 -0.03,-0.0194 -1.04083,-0.80332 -0.0599,-0.0388 -1.00674,-0.84645 -0.0599,-0.0388 -1.00262,-0.90894 -0.03,-0.0194 -0.46928,-0.46635 -0.63718,1.60803 0.49925,0.48572 0.06,0.0388 1.09049,0.99834 0.0599,0.0388 1.09666,0.90459 0.0579,0.07 1.13076,0.86147 0.0599,0.0388 1.13281,0.83022 0.06,0.0388 1.16896,0.75585 0.06,0.0388 1.17307,0.69335 z m 8.14492,3.01841 0.032,-0.0119 1.05409,0.12769 0.032,-0.0119 1.02618,0.0771 0.032,-0.0119 1.00031,-0.005 0.032,-0.0119 0.9724,-0.0554 0.032,-0.0119 0.94655,-0.13733 0.032,-0.0119 0.92069,-0.21921 0.032,-0.0119 0.8628,-0.28922 0.032,-0.0119 0.86486,-0.32047 0.032,-0.0119 0.80903,-0.42173 0.032,-0.0119 0.75114,-0.49174 0.032,-0.0119 0.0661,-0.055 -1.48245,-2.16405 -0.0341,0.0431 -0.032,0.0119 -0.715,0.41738 -0.032,0.0119 -0.74497,0.398 -0.032,0.0119 -0.77082,0.31611 -0.03,-0.0194 -0.002,0.0312 -0.79874,0.26548 -0.032,0.0119 -0.8246,0.1836 -0.032,0.0119 -0.88248,0.11359 -0.032,0.0119 -0.88043,0.0823 -0.032,0.0119 -0.90628,4.6e-4 -0.062,-0.008 -0.9342,-0.0502 -0.032,0.0119 -0.96005,-0.13205 -0.032,0.0119 -0.06,-0.0388 0.65785,2.34764 0.092,0.0269 z m -18.51578,-13.99232 -0.06,-0.0388 -0.0279,-0.0506 -0.86832,-1.05018 -0.0579,-0.07 -0.83423,-1.09329 -0.0279,-0.0506 -0.83217,-1.12454 -0.0279,-0.0506 -0.79809,-1.16766 -0.0279,-0.0506 -0.76605,-1.17953 -0.0279,-0.0506 -0.73401,-1.1914 -0.0279,-0.0506 -0.66995,-1.21514 -0.0279,-0.0506 -0.66789,-1.24639 -0.0279,-0.0506 -0.60589,-1.23888 -0.0259,-0.0819 -0.60383,-1.27012 0.002,-0.0312 -0.13752,-0.28441 -1.63478,0.14845 0.13546,0.31566 0.0259,0.0819 0.62969,1.35201 0.0279,0.0506 0.68964,1.39076 0.0279,0.0506 0.69375,1.32826 0.0279,0.0506 0.75576,1.33578 0.0279,0.0506 0.78985,1.29266 0.0279,0.0506 0.82188,1.28079 0.0579,0.07 0.85391,1.26892 0.0279,0.0506 0.888,1.22581 0.0279,0.0506 0.95206,1.20206 0.0279,0.0506 0.95412,1.17082 0.0279,0.0506 0.0879,0.0894 0.93073,-1.32047 z m 30.84187,9.5164 0.032,-0.0119 0.55163,-0.78366 0.0341,-0.0431 0.52371,-0.83428 0.002,-0.0312 0.46788,-0.93556 0.032,-0.0119 0.40793,-0.97432 0.0341,-0.0431 0.38002,-1.02494 0.002,-0.0312 0.32213,-1.09495 0.002,-0.0312 0.26424,-1.16497 0.032,-0.0119 0.20429,-1.20372 0.004,-0.0625 0.14435,-1.24249 -1.91006,-1.36537 -0.14229,1.21124 -0.004,0.0625 -0.19812,1.10998 -0.002,0.0312 -0.25807,1.07121 -0.002,0.0312 -0.31801,1.03246 0.03,0.0194 -0.37384,0.93119 -0.004,0.0625 -0.40176,0.88056 -0.002,0.0312 -0.43173,0.86118 -0.032,0.0119 -0.48961,0.79117 -0.002,0.0312 -0.54751,0.72116 -0.002,0.0312 -0.33678,0.36869 1.64672,2.0422 0.3409,-0.43119 z m -40.42693,-26.72649 -0.15514,-0.49129 -0.0279,-0.0506 -0.37961,-1.35321 -0.03,-0.0194 -0.32172,-1.2832 0.002,-0.0312 -0.28969,-1.29507 -0.28557,-1.35757 0.03,0.0194 -0.22562,-1.31881 0.004,-0.0625 -0.1357,-1.26066 0.002,-0.0312 -0.10368,-1.27254 0.002,-0.0312 -0.0437,-1.23377 0.004,-0.0625 -0.0137,-1.21439 0.004,-0.0625 0.0268,-0.40625 -1.92036,-1.20912 -0.0288,0.4375 -0.004,0.0625 0.006,1.33939 -0.002,0.0312 0.0375,1.32753 0.0259,0.0819 0.0996,1.33503 -0.004,0.0625 0.16156,1.34255 -0.004,0.0625 0.22151,1.38131 -0.002,0.0312 0.25148,1.40068 0.0279,0.0506 0.31348,1.40819 -0.002,0.0312 0.37549,1.41572 -0.002,0.0312 0.40752,1.40384 0.0279,0.0506 0.18305,0.54191 1.76818,0.19846 z" />
    <path
       inkscape:connector-curvature="0"
       id="path11063"
       style="font-size:12px;fill:#0a51a1;fill-opacity:1;fill-rule:evenodd;stroke-width:0.625;stroke-linejoin:round"
       d="m 440.44979,747.89072 2.93495,-4.85479 1.67711,7.99467 c -1.261,-1.9533 -3.12432,-3.21553 -4.61206,-3.13988 z" />
  </g>
  <g
     id="g11041"
     style="fill:#0a51a1;fill-opacity:1"
     transform="translate(-160,-623.29077)">
    <path
       inkscape:connector-curvature="0"
       id="path11019"
       style="fill:#0a51a1;fill-opacity:1;stroke:none"
       d="m 460.21042,734.19808 0.06,0.0388 1.14722,0.61147 0.0599,0.0388 1.15133,0.54897 0.03,0.0194 1.15545,0.48647 0.03,0.0194 0.57978,0.21198 -0.35194,-2.24759 -0.51778,-0.20447 -0.062,-0.008 -1.0335,-0.4402 -0.0599,-0.0388 -1.03144,-0.47144 0.002,-0.0312 -1.11725,-0.59209 -0.06,-0.0388 -1.05318,-0.61583 -0.06,-0.0388 -1.07904,-0.69771 -0.03,-0.0194 -1.07286,-0.79145 -0.03,-0.0194 -1.04083,-0.80332 -0.0599,-0.0388 -1.00674,-0.84645 -0.0599,-0.0388 -1.00262,-0.90894 -0.03,-0.0194 -0.46928,-0.46635 -0.63718,1.60803 0.49925,0.48572 0.06,0.0388 1.09049,0.99834 0.0599,0.0388 1.09666,0.90459 0.0579,0.07 1.13076,0.86147 0.0599,0.0388 1.13281,0.83022 0.06,0.0388 1.16896,0.75585 0.06,0.0388 1.17307,0.69335 z m 8.14492,3.01841 0.032,-0.0119 1.05409,0.12769 0.032,-0.0119 1.02618,0.0771 0.032,-0.0119 1.00031,-0.005 0.032,-0.0119 0.9724,-0.0554 0.032,-0.0119 0.94655,-0.13733 0.032,-0.0119 0.92069,-0.21921 0.032,-0.0119 0.8628,-0.28922 0.032,-0.0119 0.86486,-0.32047 0.032,-0.0119 0.80903,-0.42173 0.032,-0.0119 0.75114,-0.49174 0.032,-0.0119 0.0661,-0.055 -1.48245,-2.16405 -0.0341,0.0431 -0.032,0.0119 -0.715,0.41738 -0.032,0.0119 -0.74497,0.398 -0.032,0.0119 -0.77082,0.31611 -0.03,-0.0194 -0.002,0.0312 -0.79874,0.26548 -0.032,0.0119 -0.8246,0.1836 -0.032,0.0119 -0.88248,0.11359 -0.032,0.0119 -0.88043,0.0823 -0.032,0.0119 -0.90628,4.6e-4 -0.062,-0.008 -0.9342,-0.0502 -0.032,0.0119 -0.96005,-0.13205 -0.032,0.0119 -0.06,-0.0388 0.65785,2.34764 0.092,0.0269 z m -18.51578,-13.99232 -0.06,-0.0388 -0.0279,-0.0506 -0.86832,-1.05018 -0.0579,-0.07 -0.83423,-1.09329 -0.0279,-0.0506 -0.83217,-1.12454 -0.0279,-0.0506 -0.79809,-1.16766 -0.0279,-0.0506 -0.76605,-1.17953 -0.0279,-0.0506 -0.73401,-1.1914 -0.0279,-0.0506 -0.66995,-1.21514 -0.0279,-0.0506 -0.66789,-1.24639 -0.0279,-0.0506 -0.60589,-1.23888 -0.0259,-0.0819 -0.60383,-1.27012 0.002,-0.0312 -0.13752,-0.28441 -1.63478,0.14845 0.13546,0.31566 0.0259,0.0819 0.62969,1.35201 0.0279,0.0506 0.68964,1.39076 0.0279,0.0506 0.69375,1.32826 0.0279,0.0506 0.75576,1.33578 0.0279,0.0506 0.78985,1.29266 0.0279,0.0506 0.82188,1.28079 0.0579,0.07 0.85391,1.26892 0.0279,0.0506 0.888,1.22581 0.0279,0.0506 0.95206,1.20206 0.0279,0.0506 0.95412,1.17082 0.0279,0.0506 0.0879,0.0894 0.93073,-1.32047 z m 30.84187,9.5164 0.032,-0.0119 0.55163,-0.78366 0.0341,-0.0431 0.52371,-0.83428 0.002,-0.0312 0.46788,-0.93556 0.032,-0.0119 0.40793,-0.97432 0.0341,-0.0431 0.38002,-1.02494 0.002,-0.0312 0.32213,-1.09495 0.002,-0.0312 0.26424,-1.16497 0.032,-0.0119 0.20429,-1.20372 0.004,-0.0625 0.14435,-1.24249 -1.91006,-1.36537 -0.14229,1.21124 -0.004,0.0625 -0.19812,1.10998 -0.002,0.0312 -0.25807,1.07121 -0.002,0.0312 -0.31801,1.03246 0.03,0.0194 -0.37384,0.93119 -0.004,0.0625 -0.40176,0.88056 -0.002,0.0312 -0.43173,0.86118 -0.032,0.0119 -0.48961,0.79117 -0.002,0.0312 -0.54751,0.72116 -0.002,0.0312 -0.33678,0.36869 1.64672,2.0422 0.3409,-0.43119 z m -40.42693,-26.72649 -0.15514,-0.49129 -0.0279,-0.0506 -0.37961,-1.35321 -0.03,-0.0194 -0.32172,-1.2832 0.002,-0.0312 -0.28969,-1.29507 -0.28557,-1.35757 0.03,0.0194 -0.22562,-1.31881 0.004,-0.0625 -0.1357,-1.26066 0.002,-0.0312 -0.10368,-1.27254 0.002,-0.0312 -0.0437,-1.23377 0.004,-0.0625 -0.0137,-1.21439 0.004,-0.0625 0.0268,-0.40625 -1.92036,-1.20912 -0.0288,0.4375 -0.004,0.0625 0.006,1.33939 -0.002,0.0312 0.0375,1.32753 0.0259,0.0819 0.0996,1.33503 -0.004,0.0625 0.16156,1.34255 -0.004,0.0625 0.22151,1.38131 -0.002,0.0312 0.25148,1.40068 0.0279,0.0506 0.31348,1.40819 -0.002,0.0312 0.37549,1.41572 -0.002,0.0312 0.40752,1.40384 0.0279,0.0506 0.18305,0.54191 1.76818,0.19846 z" />
    <path
       inkscape:connector-curvature="0"
       id="path11047"
       style="font-size:12px;fill:#0a51a1;fill-opacity:1;fill-rule:evenodd;stroke-width:0.625;stroke-linejoin:round"
       d="m 480.49108,724.72301 2.93495,-4.85479 1.67711,7.99467 c -1.261,-1.9533 -3.12432,-3.21553 -4.61206,-3.13988 z" />
  </g>
  <path
     inkscape:connector-curvature="0"
     id="path11183"
     style="fill:#0a51a1;fill-opacity:1;stroke:none"
     d="m 379.75735,155.90356 0.06,0.0388 1.14722,0.61147 0.0599,0.0388 1.15133,0.54897 0.03,0.0194 1.15545,0.48646 0.03,0.0194 0.57978,0.21198 -0.35194,-2.24759 -0.51778,-0.20447 -0.062,-0.008 -1.0335,-0.44021 -0.0599,-0.0388 -1.03144,-0.47144 0.002,-0.0312 -1.11725,-0.59209 -0.0599,-0.0388 -1.05318,-0.61583 -0.06,-0.0388 -1.07904,-0.69771 -0.03,-0.0194 -1.07286,-0.79145 -0.03,-0.0194 -1.04083,-0.80333 -0.0599,-0.0388 -1.00674,-0.84645 -0.06,-0.0388 -1.00262,-0.90894 -0.03,-0.0194 -0.46928,-0.46635 -0.63718,1.60803 0.49925,0.48572 0.0599,0.0388 1.09049,0.99834 0.0599,0.0388 1.09666,0.90459 0.0579,0.07 1.13076,0.86147 0.0599,0.0388 1.13281,0.83022 0.0599,0.0388 1.16896,0.75585 0.06,0.0388 1.17307,0.69335 z m 8.14492,3.01841 0.032,-0.0119 1.05409,0.12769 0.032,-0.0119 1.02618,0.0771 0.032,-0.0119 1.00031,-0.005 0.032,-0.0119 0.9724,-0.0554 0.032,-0.0119 0.94655,-0.13733 0.032,-0.0119 0.92069,-0.21921 0.032,-0.0119 0.8628,-0.28922 0.032,-0.0119 0.86486,-0.32047 0.032,-0.0119 0.80903,-0.42173 0.032,-0.0119 0.75114,-0.49174 0.032,-0.0119 0.0661,-0.055 -1.48245,-2.16405 -0.0341,0.0431 -0.032,0.0119 -0.715,0.41738 -0.032,0.0119 -0.74497,0.398 -0.032,0.0119 -0.77082,0.31611 -0.03,-0.0194 -0.002,0.0312 -0.79874,0.26548 -0.032,0.0119 -0.8246,0.1836 -0.032,0.0119 -0.88248,0.11359 -0.032,0.0119 -0.88043,0.0823 -0.032,0.0119 -0.90628,4.6e-4 -0.062,-0.008 -0.9342,-0.0502 -0.032,0.0119 -0.96005,-0.13205 -0.032,0.0119 -0.06,-0.0388 0.65785,2.34764 0.092,0.0269 z m -18.51578,-13.99232 -0.0599,-0.0388 -0.0279,-0.0506 -0.86832,-1.05018 -0.0579,-0.07 -0.83423,-1.09329 -0.0279,-0.0506 -0.83217,-1.12454 -0.0279,-0.0506 -0.79809,-1.16766 -0.0279,-0.0506 -0.76605,-1.17953 -0.0279,-0.0506 -0.73401,-1.19139 -0.0279,-0.0506 -0.66995,-1.21513 -0.0279,-0.0506 -0.66789,-1.24639 -0.0279,-0.0506 -0.60589,-1.23888 -0.0259,-0.0819 -0.60383,-1.27012 0.002,-0.0312 -0.13752,-0.28441 -1.63478,0.14845 0.13546,0.31566 0.0259,0.0819 0.62969,1.35201 0.0279,0.0506 0.68964,1.39076 0.0279,0.0506 0.69375,1.32826 0.0279,0.0506 0.75576,1.33578 0.0279,0.0506 0.78985,1.29266 0.0279,0.0506 0.82188,1.28079 0.0579,0.07 0.85391,1.26892 0.0279,0.0506 0.888,1.22581 0.0279,0.0506 0.95206,1.20207 0.0279,0.0506 0.95412,1.17082 0.0279,0.0506 0.0879,0.0894 0.93073,-1.32047 z m 30.84187,9.5164 0.032,-0.0119 0.55163,-0.78367 0.0341,-0.0431 0.52371,-0.83428 0.002,-0.0312 0.46788,-0.93556 0.032,-0.0119 0.40793,-0.97432 0.0341,-0.0431 0.38002,-1.02494 0.002,-0.0312 0.32213,-1.09495 0.002,-0.0312 0.26424,-1.16497 0.032,-0.0119 0.20429,-1.20372 0.004,-0.0625 0.14435,-1.24249 -1.91006,-1.36537 -0.14229,1.21124 -0.004,0.0625 -0.19812,1.10998 -0.002,0.0312 -0.25807,1.07121 -0.002,0.0312 -0.31801,1.03246 0.03,0.0194 -0.37384,0.93119 -0.004,0.0625 -0.40176,0.88056 -0.002,0.0312 -0.43173,0.86118 -0.032,0.0119 -0.48961,0.79117 -0.002,0.0312 -0.54751,0.72116 -0.002,0.0312 -0.33678,0.36869 1.64672,2.04219 0.3409,-0.43118 z m -40.42693,-26.72649 -0.15514,-0.49129 -0.0279,-0.0506 -0.37961,-1.35321 -0.03,-0.0194 -0.32172,-1.2832 0.002,-0.0312 -0.28969,-1.29507 -0.28557,-1.35757 0.03,0.0194 -0.22562,-1.31881 0.004,-0.0625 -0.1357,-1.26066 0.002,-0.0312 -0.10368,-1.27254 0.002,-0.0312 -0.0437,-1.23377 0.004,-0.0625 -0.0137,-1.21439 0.004,-0.0625 0.0268,-0.40625 -1.92036,-1.20912 -0.0288,0.4375 -0.004,0.0625 0.006,1.33939 -0.002,0.0312 0.0376,1.32753 0.0259,0.0819 0.0996,1.33503 -0.004,0.0625 0.16156,1.34255 -0.004,0.0625 0.22151,1.38131 -0.002,0.0312 0.25148,1.40068 0.0279,0.0506 0.31348,1.40819 -0.002,0.0312 0.37549,1.41572 -0.002,0.0312 0.40752,1.40384 0.0279,0.0506 0.18305,0.54191 1.76818,0.19846 z" />
  <path
     inkscape:connector-curvature="0"
     id="path11147"
     style="fill:#0a51a1;fill-opacity:1;stroke:none"
     d="m 339.71606,179.07126 0.0599,0.0388 1.14722,0.61147 0.06,0.0388 1.15133,0.54897 0.03,0.0194 1.15545,0.48648 0.03,0.0194 0.57978,0.21198 -0.35194,-2.24759 -0.51778,-0.20447 -0.062,-0.008 -1.0335,-0.4402 -0.06,-0.0388 -1.03144,-0.47144 0.002,-0.0312 -1.11725,-0.59209 -0.0599,-0.0388 -1.05318,-0.61583 -0.06,-0.0388 -1.07904,-0.69771 -0.03,-0.0194 -1.07286,-0.79145 -0.03,-0.0194 -1.04083,-0.80332 -0.06,-0.0388 -1.00674,-0.84645 -0.06,-0.0388 -1.00262,-0.90893 -0.03,-0.0194 -0.46928,-0.46635 -0.63718,1.60803 0.49925,0.48572 0.0599,0.0388 1.09049,0.99834 0.0599,0.0388 1.09666,0.90458 0.0579,0.07 1.13076,0.86147 0.0599,0.0388 1.13281,0.83022 0.06,0.0388 1.16896,0.75585 0.0599,0.0388 1.17307,0.69334 z m 8.14492,3.01842 0.032,-0.0119 1.05409,0.12768 0.032,-0.0119 1.02618,0.0771 0.032,-0.0119 1.00031,-0.005 0.032,-0.0119 0.9724,-0.0554 0.032,-0.0119 0.94655,-0.13733 0.032,-0.0119 0.92069,-0.21921 0.032,-0.0119 0.8628,-0.28922 0.032,-0.0119 0.86486,-0.32047 0.032,-0.0119 0.80903,-0.42173 0.032,-0.0119 0.75114,-0.49173 0.032,-0.0119 0.0661,-0.055 -1.48245,-2.16405 -0.0341,0.0431 -0.032,0.0119 -0.715,0.41738 -0.032,0.0119 -0.74497,0.398 -0.032,0.0119 -0.77082,0.31611 -0.03,-0.0194 -0.002,0.0312 -0.79874,0.26548 -0.032,0.0119 -0.8246,0.1836 -0.032,0.0119 -0.88248,0.11359 -0.032,0.0119 -0.88043,0.0823 -0.032,0.0119 -0.90628,4.6e-4 -0.062,-0.008 -0.9342,-0.0502 -0.032,0.0119 -0.96005,-0.13205 -0.032,0.0119 -0.06,-0.0388 0.65785,2.34764 0.092,0.0269 z m -18.51578,-13.99232 -0.0599,-0.0388 -0.0279,-0.0506 -0.86832,-1.05018 -0.0579,-0.07 -0.83423,-1.09329 -0.0279,-0.0506 -0.83217,-1.12454 -0.0279,-0.0506 -0.79809,-1.16766 -0.0279,-0.0506 -0.76605,-1.17953 -0.0279,-0.0506 -0.73401,-1.1914 -0.0279,-0.0506 -0.66995,-1.21514 -0.0279,-0.0506 -0.66789,-1.24639 -0.0279,-0.0506 -0.60589,-1.23888 -0.0259,-0.0819 -0.60383,-1.27012 0.002,-0.0312 -0.13752,-0.28441 -1.63478,0.14845 0.13546,0.31566 0.0259,0.0819 0.62969,1.35202 0.0279,0.0506 0.68964,1.39076 0.0279,0.0506 0.69375,1.32826 0.0279,0.0506 0.75576,1.33578 0.0279,0.0506 0.78985,1.29266 0.0279,0.0506 0.82188,1.28078 0.0579,0.07 0.85391,1.26892 0.0279,0.0506 0.888,1.22581 0.0279,0.0506 0.95206,1.20206 0.0279,0.0506 0.95412,1.17082 0.0279,0.0506 0.0879,0.0894 0.93073,-1.32047 z m 30.84187,9.5164 0.032,-0.0119 0.55163,-0.78365 0.0341,-0.0431 0.52371,-0.83428 0.002,-0.0312 0.46788,-0.93556 0.032,-0.0119 0.40793,-0.97432 0.0341,-0.0431 0.38002,-1.02494 0.002,-0.0312 0.32213,-1.09495 0.002,-0.0312 0.26424,-1.16497 0.032,-0.0119 0.20429,-1.20372 0.004,-0.0625 0.14435,-1.24249 -1.91006,-1.36537 -0.14229,1.21124 -0.004,0.0625 -0.19812,1.10998 -0.002,0.0312 -0.25807,1.07121 -0.002,0.0312 -0.31801,1.03246 0.03,0.0194 -0.37384,0.93119 -0.004,0.0625 -0.40176,0.88056 -0.002,0.0312 -0.43173,0.86117 -0.032,0.0119 -0.48961,0.79117 -0.002,0.0312 -0.54751,0.72116 -0.002,0.0312 -0.33678,0.36869 1.64672,2.0422 0.3409,-0.43119 z m -40.42693,-26.72649 -0.15514,-0.49129 -0.0279,-0.0506 -0.37961,-1.35321 -0.03,-0.0194 -0.32172,-1.28321 0.002,-0.0312 -0.28969,-1.29506 -0.28557,-1.35757 0.03,0.0194 -0.22562,-1.31881 0.004,-0.0625 -0.1357,-1.26066 0.002,-0.0312 -0.10368,-1.27254 0.002,-0.0312 -0.0437,-1.23377 0.004,-0.0625 -0.0138,-1.21439 0.004,-0.0625 0.0268,-0.40625 -1.92036,-1.20912 -0.0288,0.4375 -0.004,0.0625 0.006,1.33939 -0.002,0.0312 0.0376,1.32753 0.0259,0.0819 0.0996,1.33503 -0.004,0.0625 0.16156,1.34255 -0.004,0.0625 0.22151,1.38131 -0.002,0.0312 0.25148,1.40068 0.0279,0.0506 0.31348,1.40819 -0.002,0.0312 0.37549,1.41572 -0.002,0.0312 0.40752,1.40384 0.0279,0.0506 0.18305,0.54191 1.76818,0.19846 z" />
  <path
     inkscape:connector-curvature="0"
     id="path11159"
     style="fill:#0a51a1;fill-opacity:1;stroke:none"
     d="m 299.67476,202.23899 0.06,0.0388 1.14722,0.61146 0.06,0.0388 1.15133,0.54897 0.03,0.0194 1.15545,0.48647 0.03,0.0194 0.57978,0.21198 -0.35194,-2.24759 -0.51778,-0.20447 -0.062,-0.008 -1.0335,-0.4402 -0.06,-0.0388 -1.03144,-0.47144 0.002,-0.0312 -1.11725,-0.59209 -0.06,-0.0388 -1.05318,-0.61583 -0.0599,-0.0388 -1.07904,-0.69771 -0.03,-0.0194 -1.07286,-0.79146 -0.03,-0.0194 -1.04083,-0.80332 -0.06,-0.0388 -1.00674,-0.84645 -0.0599,-0.0388 -1.00262,-0.90894 -0.03,-0.0194 -0.46928,-0.46635 -0.63718,1.60802 0.49925,0.48573 0.06,0.0388 1.09049,0.99834 0.0599,0.0388 1.09666,0.90459 0.0579,0.07 1.13076,0.86146 0.0599,0.0388 1.13281,0.83022 0.06,0.0388 1.16896,0.75584 0.06,0.0388 1.17307,0.69335 z m 8.14492,3.01841 0.032,-0.0119 1.05409,0.12769 0.032,-0.0119 1.02618,0.0771 0.032,-0.0119 1.00031,-0.005 0.032,-0.0119 0.9724,-0.0554 0.032,-0.0119 0.94655,-0.13733 0.032,-0.0119 0.92069,-0.21921 0.032,-0.0119 0.8628,-0.28922 0.032,-0.0119 0.86486,-0.32047 0.032,-0.0119 0.80903,-0.42173 0.032,-0.0119 0.75114,-0.49174 0.032,-0.0119 0.0661,-0.055 -1.48245,-2.16405 -0.0341,0.0431 -0.032,0.0119 -0.715,0.41738 -0.032,0.0119 -0.74497,0.398 -0.032,0.0119 -0.77082,0.31611 -0.03,-0.0194 -0.002,0.0312 -0.79874,0.26548 -0.032,0.0119 -0.8246,0.1836 -0.032,0.0119 -0.88248,0.11359 -0.032,0.0119 -0.88043,0.0823 -0.032,0.0119 -0.90628,4.6e-4 -0.062,-0.008 -0.9342,-0.0502 -0.032,0.0119 -0.96005,-0.13205 -0.032,0.0119 -0.06,-0.0388 0.65785,2.34764 0.092,0.0269 z m -18.51578,-13.99232 -0.06,-0.0388 -0.0279,-0.0506 -0.86832,-1.05018 -0.0579,-0.07 -0.83423,-1.0933 -0.0279,-0.0506 -0.83217,-1.12454 -0.0279,-0.0506 -0.79809,-1.16766 -0.0279,-0.0506 -0.76605,-1.17953 -0.0279,-0.0506 -0.73401,-1.1914 -0.0279,-0.0506 -0.66995,-1.21514 -0.0279,-0.0506 -0.66789,-1.24638 -0.0279,-0.0506 -0.60589,-1.23888 -0.0259,-0.0819 -0.60383,-1.27012 0.002,-0.0312 -0.13752,-0.28441 -1.63478,0.14845 0.13546,0.31566 0.0259,0.0819 0.62969,1.35201 0.0279,0.0506 0.68964,1.39076 0.0279,0.0506 0.69375,1.32826 0.0279,0.0506 0.75576,1.33578 0.0279,0.0506 0.78985,1.29266 0.0279,0.0506 0.82188,1.28079 0.0579,0.07 0.85391,1.26892 0.0279,0.0506 0.888,1.22581 0.0279,0.0506 0.95206,1.20206 0.0279,0.0506 0.95412,1.17083 0.0279,0.0506 0.0879,0.0894 0.93073,-1.32047 z m 30.84187,9.5164 0.032,-0.0119 0.55163,-0.78366 0.0341,-0.0431 0.52371,-0.83428 0.002,-0.0312 0.46788,-0.93557 0.032,-0.0118 0.40793,-0.97432 0.0341,-0.0431 0.38002,-1.02494 0.002,-0.0312 0.32213,-1.09495 0.002,-0.0312 0.26424,-1.16497 0.032,-0.0119 0.20429,-1.20372 0.004,-0.0625 0.14435,-1.24249 -1.91006,-1.36537 -0.14229,1.21124 -0.004,0.0625 -0.19812,1.10998 -0.002,0.0312 -0.25807,1.07121 -0.002,0.0312 -0.31801,1.03246 0.03,0.0194 -0.37384,0.93119 -0.004,0.0625 -0.40176,0.88056 -0.002,0.0312 -0.43173,0.86118 -0.032,0.0119 -0.48961,0.79117 -0.002,0.0312 -0.54751,0.72116 -0.002,0.0312 -0.33678,0.36868 1.64672,2.04221 0.3409,-0.43119 z m -40.42693,-26.72649 -0.15514,-0.49129 -0.0279,-0.0506 -0.37961,-1.35321 -0.03,-0.0194 -0.32172,-1.28319 0.002,-0.0312 -0.28969,-1.29507 -0.28557,-1.35757 0.03,0.0194 -0.22562,-1.31881 0.004,-0.0625 -0.1357,-1.26066 0.002,-0.0312 -0.10368,-1.27254 0.002,-0.0312 -0.0437,-1.23377 0.004,-0.0625 -0.0137,-1.21439 0.004,-0.0625 0.0268,-0.40625 -1.92036,-1.20912 -0.0288,0.4375 -0.004,0.0625 0.006,1.33939 -0.002,0.0312 0.0375,1.32753 0.0259,0.0819 0.0996,1.33503 -0.004,0.0625 0.16156,1.34254 -0.004,0.0625 0.22151,1.38132 -0.002,0.0312 0.25148,1.40068 0.0279,0.0506 0.31348,1.40819 -0.002,0.0312 0.37549,1.41572 -0.002,0.0312 0.40752,1.40384 0.0279,0.0506 0.18305,0.54191 1.76818,0.19846 z" />
  <path
     inkscape:connector-curvature="0"
     id="path11165"
     style="fill:#0a51a1;fill-opacity:1;stroke:none"
     d="m 259.63345,225.4067 0.06,0.0388 1.14722,0.61147 0.06,0.0388 1.15133,0.54897 0.03,0.0194 1.15545,0.48646 0.03,0.0194 0.57978,0.21198 -0.35194,-2.24759 -0.51778,-0.20447 -0.062,-0.008 -1.0335,-0.4402 -0.06,-0.0388 -1.03144,-0.47144 0.002,-0.0312 -1.11725,-0.59209 -0.06,-0.0388 -1.05318,-0.61583 -0.0599,-0.0388 -1.07904,-0.69771 -0.03,-0.0194 -1.07286,-0.79145 -0.03,-0.0194 -1.04083,-0.80332 -0.06,-0.0388 -1.00674,-0.84645 -0.06,-0.0388 -1.00262,-0.90895 -0.03,-0.0194 -0.46928,-0.46635 -0.63718,1.60803 0.49925,0.48572 0.06,0.0388 1.09049,0.99834 0.0599,0.0388 1.09666,0.9046 0.0579,0.07 1.13076,0.86147 0.0599,0.0388 1.13281,0.83022 0.06,0.0388 1.16896,0.75585 0.06,0.0388 1.17307,0.69336 z m 8.14492,3.0184 0.032,-0.0119 1.05409,0.1277 0.032,-0.0119 1.02618,0.0771 0.032,-0.0119 1.00031,-0.005 0.032,-0.0119 0.9724,-0.0554 0.032,-0.0119 0.94655,-0.13733 0.032,-0.0119 0.92069,-0.21921 0.032,-0.0119 0.8628,-0.28922 0.032,-0.0119 0.86486,-0.32047 0.032,-0.0119 0.80903,-0.42173 0.032,-0.0119 0.75114,-0.49175 0.032,-0.0119 0.0661,-0.055 -1.48245,-2.16405 -0.0341,0.0431 -0.032,0.0119 -0.715,0.41738 -0.032,0.0119 -0.74497,0.398 -0.032,0.0119 -0.77082,0.31611 -0.03,-0.0194 -0.002,0.0312 -0.79874,0.26548 -0.032,0.0119 -0.8246,0.1836 -0.032,0.0119 -0.88248,0.11359 -0.032,0.0119 -0.88043,0.0823 -0.032,0.0119 -0.90628,4.6e-4 -0.062,-0.008 -0.9342,-0.0502 -0.032,0.0119 -0.96005,-0.13205 -0.032,0.0119 -0.0599,-0.0388 0.65785,2.34764 0.092,0.0269 z m -18.51578,-13.99232 -0.06,-0.0388 -0.0279,-0.0506 -0.86832,-1.05018 -0.0579,-0.07 -0.83423,-1.09329 -0.0279,-0.0506 -0.83217,-1.12454 -0.0279,-0.0506 -0.79809,-1.16766 -0.0279,-0.0506 -0.76605,-1.17953 -0.0279,-0.0506 -0.73401,-1.1914 -0.0279,-0.0506 -0.66995,-1.21514 -0.0279,-0.0506 -0.66789,-1.24639 -0.0279,-0.0506 -0.60589,-1.23888 -0.0259,-0.0819 -0.60383,-1.27012 0.002,-0.0312 -0.13752,-0.28441 -1.63478,0.14845 0.13546,0.31566 0.0259,0.0819 0.62969,1.352 0.0279,0.0506 0.68964,1.39076 0.0279,0.0506 0.69375,1.32826 0.0279,0.0506 0.75576,1.33578 0.0279,0.0506 0.78985,1.29266 0.0279,0.0506 0.82188,1.2808 0.0579,0.07 0.85391,1.26892 0.0279,0.0506 0.888,1.22581 0.0279,0.0506 0.95206,1.20206 0.0279,0.0506 0.95412,1.17082 0.0279,0.0506 0.0879,0.0894 0.93073,-1.32047 z m 30.84187,9.5164 0.032,-0.0119 0.55163,-0.78367 0.0341,-0.0431 0.52371,-0.83428 0.002,-0.0312 0.46788,-0.93556 0.032,-0.0119 0.40793,-0.97432 0.0341,-0.0431 0.38002,-1.02494 0.002,-0.0312 0.32213,-1.09495 0.002,-0.0312 0.26424,-1.16497 0.032,-0.0119 0.20429,-1.20372 0.004,-0.0625 0.14435,-1.24249 -1.91006,-1.36537 -0.14229,1.21124 -0.004,0.0625 -0.19812,1.10998 -0.002,0.0312 -0.25807,1.07121 -0.002,0.0312 -0.31801,1.03246 0.03,0.0194 -0.37384,0.93119 -0.004,0.0625 -0.40176,0.88056 -0.002,0.0312 -0.43173,0.86119 -0.032,0.0119 -0.48961,0.79117 -0.002,0.0312 -0.54751,0.72116 -0.002,0.0312 -0.33678,0.36869 1.64672,2.0422 0.3409,-0.43119 z m -40.42693,-26.72649 -0.15514,-0.49129 -0.0279,-0.0506 -0.37961,-1.35321 -0.03,-0.0194 -0.32172,-1.28319 0.002,-0.0312 -0.28969,-1.29508 -0.28557,-1.35757 0.03,0.0194 -0.22562,-1.31881 0.004,-0.0625 -0.1357,-1.26066 0.002,-0.0312 -0.10368,-1.27254 0.002,-0.0312 -0.0437,-1.23377 0.004,-0.0625 -0.0138,-1.21439 0.004,-0.0625 0.0268,-0.40625 -1.92036,-1.20912 -0.0288,0.4375 -0.004,0.0625 0.006,1.33939 -0.002,0.0312 0.0376,1.32753 0.0259,0.0819 0.0996,1.33503 -0.004,0.0625 0.16156,1.34255 -0.004,0.0625 0.22151,1.38131 -0.002,0.0312 0.25148,1.40068 0.0279,0.0506 0.31348,1.40819 -0.002,0.0312 0.37549,1.41572 -0.002,0.0312 0.40752,1.40384 0.0279,0.0506 0.18305,0.54191 1.76818,0.19846 z" />
  <path
     inkscape:connector-curvature="0"
     id="path10987"
     style="fill:#005100;stroke:#c08453;stroke-width:5;stroke-linecap:round;stroke-linejoin:miter;stroke-miterlimit:4;stroke-opacity:1;stroke-dasharray:none;fill-opacity:1"
     d="M 37.362954,235.02503 359.56821,49.415519" />
  <g
     id="g11065"
     style="fill:#0a51a1;fill-opacity:1"
     transform="translate(-160,-623.29077)">
    <path
       inkscape:connector-curvature="0"
       id="path10989"
       style="fill:#0a51a1;fill-opacity:1;stroke:none"
       d="m 421.17789,701.68626 -0.06,-0.0388 -1.14722,-0.61147 -0.0599,-0.0388 -1.15133,-0.54897 -0.03,-0.0194 -1.15545,-0.48647 -0.03,-0.0194 -0.57978,-0.21198 0.35194,2.24759 0.51778,0.20447 0.062,0.008 1.0335,0.4402 0.06,0.0388 1.03144,0.47144 -0.002,0.0312 1.11725,0.59209 0.06,0.0388 1.05318,0.61583 0.06,0.0388 1.07904,0.69771 0.03,0.0194 1.07286,0.79145 0.03,0.0194 1.04083,0.80332 0.06,0.0388 1.00674,0.84645 0.06,0.0388 1.00262,0.90894 0.03,0.0194 0.46928,0.46635 0.63718,-1.60803 -0.49925,-0.48572 -0.06,-0.0388 -1.09049,-0.99834 -0.0599,-0.0388 -1.09666,-0.90459 -0.0579,-0.07 -1.13076,-0.86147 -0.0599,-0.0388 -1.13281,-0.83022 -0.0599,-0.0388 -1.16896,-0.75585 -0.06,-0.0388 -1.17307,-0.69335 z m -8.14492,-3.01841 -0.032,0.0119 -1.05409,-0.12769 -0.032,0.0119 -1.02618,-0.0771 -0.032,0.0119 -1.00031,0.005 -0.032,0.0119 -0.9724,0.0554 -0.032,0.0119 -0.94655,0.13733 -0.032,0.0119 -0.92069,0.21921 -0.032,0.0119 -0.8628,0.28922 -0.032,0.0119 -0.86486,0.32047 -0.032,0.0119 -0.80903,0.42173 -0.032,0.0119 -0.75114,0.49174 -0.032,0.0119 -0.0661,0.055 1.48245,2.16405 0.0341,-0.0431 0.032,-0.0119 0.715,-0.41738 0.032,-0.0119 0.74497,-0.398 0.032,-0.0119 0.77082,-0.31611 0.03,0.0194 0.002,-0.0312 0.79874,-0.26548 0.032,-0.0119 0.8246,-0.1836 0.032,-0.0119 0.88248,-0.11359 0.032,-0.0119 0.88043,-0.0823 0.032,-0.0119 0.90628,-4.6e-4 0.062,0.008 0.9342,0.0502 0.032,-0.0119 0.96005,0.13205 0.032,-0.0119 0.06,0.0388 -0.65785,-2.34764 -0.092,-0.0269 z m 18.51578,13.99232 0.06,0.0388 0.0279,0.0506 0.86832,1.05018 0.0579,0.07 0.83423,1.09329 0.0279,0.0506 0.83217,1.12454 0.0279,0.0506 0.79809,1.16766 0.0279,0.0506 0.76605,1.17953 0.0279,0.0506 0.73401,1.1914 0.0279,0.0506 0.66995,1.21514 0.0279,0.0506 0.66789,1.24639 0.0279,0.0506 0.60589,1.23888 0.0259,0.0819 0.60383,1.27012 -0.002,0.0312 0.13752,0.28441 1.63478,-0.14845 -0.13546,-0.31566 -0.0259,-0.0819 -0.62969,-1.35201 -0.0279,-0.0506 -0.68964,-1.39076 -0.0279,-0.0506 -0.69375,-1.32826 -0.0279,-0.0506 -0.75576,-1.33578 -0.0279,-0.0506 -0.78985,-1.29266 -0.0279,-0.0506 -0.82188,-1.28079 -0.0579,-0.07 -0.85391,-1.26892 -0.0279,-0.0506 -0.888,-1.22581 -0.0279,-0.0506 -0.95206,-1.20206 -0.0279,-0.0506 -0.95412,-1.17082 -0.0279,-0.0506 -0.0879,-0.0894 -0.93073,1.32047 z m -30.84187,-9.5164 -0.032,0.0119 -0.55163,0.78366 -0.0341,0.0431 -0.52371,0.83428 -0.002,0.0312 -0.46788,0.93556 -0.032,0.0119 -0.40793,0.97432 -0.0341,0.0431 -0.38002,1.02494 -0.002,0.0312 -0.32213,1.09495 -0.002,0.0312 -0.26424,1.16497 -0.032,0.0119 -0.20429,1.20372 -0.004,0.0625 -0.14435,1.24249 1.91006,1.36537 0.14229,-1.21124 0.004,-0.0625 0.19812,-1.10998 0.002,-0.0312 0.25807,-1.07121 0.002,-0.0312 0.31801,-1.03246 -0.03,-0.0194 0.37384,-0.93119 0.004,-0.0625 0.40176,-0.88056 0.002,-0.0312 0.43173,-0.86118 0.032,-0.0119 0.48961,-0.79117 0.002,-0.0312 0.54751,-0.72116 0.002,-0.0312 0.33678,-0.36869 -1.64672,-2.0422 -0.3409,0.43119 z m 40.42693,26.72649 0.15514,0.49129 0.0279,0.0506 0.37961,1.35321 0.03,0.0194 0.32172,1.2832 -0.002,0.0312 0.28969,1.29507 0.28557,1.35757 -0.03,-0.0194 0.22562,1.31881 -0.004,0.0625 0.1357,1.26066 -0.002,0.0312 0.10368,1.27254 -0.002,0.0312 0.0437,1.23377 -0.004,0.0625 0.0138,1.21439 -0.004,0.0625 -0.0268,0.40625 1.92036,1.20912 0.0288,-0.4375 0.004,-0.0625 -0.006,-1.33939 0.002,-0.0312 -0.0376,-1.32753 -0.0259,-0.0819 -0.0995,-1.33503 0.004,-0.0625 -0.16156,-1.34255 0.004,-0.0625 -0.22151,-1.38131 0.002,-0.0312 -0.25148,-1.40068 -0.0279,-0.0506 -0.31348,-1.40819 0.002,-0.0312 -0.37549,-1.41572 0.002,-0.0312 -0.40752,-1.40384 -0.0279,-0.0506 -0.18305,-0.54191 -1.76818,-0.19846 z" />
    <path
       inkscape:connector-curvature="0"
       id="path11071"
       style="font-size:12px;fill:#0a51a1;fill-opacity:1;fill-rule:evenodd;stroke-width:0.625;stroke-linejoin:round"
       d="m 400.89723,711.16133 -2.93495,4.85479 -1.67711,-7.99467 c 1.261,1.9533 3.12432,3.21553 4.61206,3.13988 z" />
  </g>
  <g
     id="g11081"
     style="fill:#0a51a1;fill-opacity:1"
     transform="translate(-160,-623.29077)">
    <path
       inkscape:connector-curvature="0"
       id="path11005"
       style="fill:#0a51a1;fill-opacity:1;stroke:none"
       d="m 381.13659,724.85397 -0.06,-0.0388 -1.14722,-0.61147 -0.06,-0.0388 -1.15133,-0.54897 -0.03,-0.0194 -1.15545,-0.48647 -0.03,-0.0194 -0.57978,-0.21198 0.35194,2.24759 0.51778,0.20447 0.062,0.008 1.0335,0.4402 0.06,0.0388 1.03144,0.47144 -0.002,0.0312 1.11725,0.59209 0.06,0.0388 1.05318,0.61583 0.0599,0.0388 1.07904,0.69771 0.03,0.0194 1.07286,0.79145 0.03,0.0194 1.04083,0.80332 0.06,0.0388 1.00674,0.84645 0.0599,0.0388 1.00262,0.90894 0.03,0.0194 0.46928,0.46635 0.63718,-1.60803 -0.49925,-0.48572 -0.06,-0.0388 -1.09049,-0.99834 -0.0599,-0.0388 -1.09666,-0.90459 -0.0579,-0.07 -1.13076,-0.86147 -0.0599,-0.0388 -1.13281,-0.83022 -0.06,-0.0388 -1.16896,-0.75585 -0.06,-0.0388 -1.17307,-0.69335 z m -8.14492,-3.01841 -0.032,0.0119 -1.05409,-0.12769 -0.032,0.0119 -1.02618,-0.0771 -0.032,0.0119 -1.00031,0.005 -0.032,0.0119 -0.9724,0.0554 -0.032,0.0119 -0.94655,0.13733 -0.032,0.0119 -0.92069,0.21921 -0.032,0.0119 -0.8628,0.28922 -0.032,0.0119 -0.86486,0.32047 -0.032,0.0119 -0.80903,0.42173 -0.032,0.0119 -0.75114,0.49174 -0.032,0.0119 -0.0661,0.055 1.48245,2.16405 0.0341,-0.0431 0.032,-0.0119 0.715,-0.41738 0.032,-0.0119 0.74497,-0.398 0.032,-0.0119 0.77082,-0.31611 0.03,0.0194 0.002,-0.0312 0.79874,-0.26548 0.032,-0.0119 0.8246,-0.1836 0.032,-0.0119 0.88248,-0.11359 0.032,-0.0119 0.88043,-0.0823 0.032,-0.0119 0.90628,-4.6e-4 0.062,0.008 0.9342,0.0502 0.032,-0.0119 0.96005,0.13205 0.032,-0.0119 0.0599,0.0388 -0.65785,-2.34764 -0.092,-0.0269 z m 18.51578,13.99232 0.06,0.0388 0.0279,0.0506 0.86832,1.05018 0.0579,0.07 0.83423,1.09329 0.0279,0.0506 0.83217,1.12454 0.0279,0.0506 0.79809,1.16766 0.0279,0.0506 0.76605,1.17953 0.0279,0.0506 0.73401,1.1914 0.0279,0.0506 0.66995,1.21514 0.0279,0.0506 0.66789,1.24639 0.0279,0.0506 0.60589,1.23888 0.0259,0.0819 0.60383,1.27012 -0.002,0.0312 0.13752,0.28441 1.63478,-0.14845 -0.13546,-0.31566 -0.0259,-0.0819 -0.62969,-1.35201 -0.0279,-0.0506 -0.68964,-1.39076 -0.0279,-0.0506 -0.69375,-1.32826 -0.0279,-0.0506 -0.75576,-1.33578 -0.0279,-0.0506 -0.78985,-1.29266 -0.0279,-0.0506 -0.82188,-1.28079 -0.0579,-0.07 -0.85391,-1.26892 -0.0279,-0.0506 -0.888,-1.22581 -0.0279,-0.0506 -0.95206,-1.20206 -0.0279,-0.0506 -0.95412,-1.17082 -0.0279,-0.0506 -0.0879,-0.0894 -0.93073,1.32047 z m -30.84187,-9.5164 -0.032,0.0119 -0.55163,0.78366 -0.0341,0.0431 -0.52371,0.83428 -0.002,0.0312 -0.46788,0.93556 -0.032,0.0119 -0.40793,0.97432 -0.0341,0.0431 -0.38002,1.02494 -0.002,0.0312 -0.32213,1.09495 -0.002,0.0312 -0.26424,1.16497 -0.032,0.0119 -0.20429,1.20372 -0.004,0.0625 -0.14435,1.24249 1.91006,1.36537 0.14229,-1.21124 0.004,-0.0625 0.19812,-1.10998 0.002,-0.0312 0.25807,-1.07121 0.002,-0.0312 0.31801,-1.03246 -0.03,-0.0194 0.37384,-0.93119 0.004,-0.0625 0.40176,-0.88056 0.002,-0.0312 0.43173,-0.86118 0.032,-0.0119 0.48961,-0.79117 0.002,-0.0312 0.54751,-0.72116 0.002,-0.0312 0.33678,-0.36869 -1.64672,-2.0422 -0.3409,0.43119 z m 40.42693,26.72649 0.15514,0.49129 0.0279,0.0506 0.37961,1.35321 0.03,0.0194 0.32172,1.2832 -0.002,0.0312 0.28969,1.29507 0.28557,1.35757 -0.03,-0.0194 0.22562,1.31881 -0.004,0.0625 0.1357,1.26066 -0.002,0.0312 0.10368,1.27254 -0.002,0.0312 0.0437,1.23377 -0.004,0.0625 0.0138,1.21439 -0.004,0.0625 -0.0268,0.40625 1.92036,1.20912 0.0288,-0.4375 0.004,-0.0625 -0.006,-1.33939 0.002,-0.0312 -0.0376,-1.32753 -0.0259,-0.0819 -0.0996,-1.33503 0.004,-0.0625 -0.16156,-1.34255 0.004,-0.0625 -0.22151,-1.38131 0.002,-0.0312 -0.25148,-1.40068 -0.0279,-0.0506 -0.31348,-1.40819 0.002,-0.0312 -0.37549,-1.41572 0.002,-0.0312 -0.40752,-1.40384 -0.0279,-0.0506 -0.18305,-0.54191 -1.76818,-0.19846 z" />
    <path
       inkscape:connector-curvature="0"
       id="path11087"
       style="font-size:12px;fill:#0a51a1;fill-opacity:1;fill-rule:evenodd;stroke-width:0.625;stroke-linejoin:round"
       d="m 360.85593,734.32904 -2.93495,4.85479 -1.67711,-7.99467 c 1.261,1.9533 3.12432,3.21553 4.61206,3.13988 z" />
  </g>
  <g
     id="g11097"
     style="fill:#0a51a1;fill-opacity:1"
     transform="translate(-160,-623.29077)">
    <path
       inkscape:connector-curvature="0"
       id="path11011"
       style="fill:#0a51a1;fill-opacity:1;stroke:none"
       d="m 341.09528,748.02168 -0.06,-0.0388 -1.14722,-0.61147 -0.0599,-0.0388 -1.15133,-0.54897 -0.03,-0.0194 -1.15545,-0.48647 -0.03,-0.0194 -0.57978,-0.21198 0.35194,2.24759 0.51778,0.20447 0.062,0.008 1.0335,0.4402 0.0599,0.0388 1.03144,0.47144 -0.002,0.0312 1.11725,0.59209 0.06,0.0388 1.05318,0.61583 0.06,0.0388 1.07904,0.69771 0.03,0.0194 1.07286,0.79145 0.03,0.0194 1.04083,0.80332 0.0599,0.0388 1.00674,0.84645 0.0599,0.0388 1.00262,0.90894 0.03,0.0194 0.46928,0.46635 0.63718,-1.60803 -0.49925,-0.48572 -0.06,-0.0388 -1.09049,-0.99834 -0.0599,-0.0388 -1.09666,-0.90459 -0.0579,-0.07 -1.13076,-0.86147 -0.0599,-0.0388 -1.13281,-0.83022 -0.06,-0.0388 -1.16896,-0.75585 -0.06,-0.0388 -1.17307,-0.69335 z m -8.14492,-3.01841 -0.032,0.0119 -1.05409,-0.12769 -0.032,0.0119 -1.02618,-0.0771 -0.032,0.0119 -1.00031,0.005 -0.032,0.0119 -0.9724,0.0554 -0.032,0.0119 -0.94655,0.13733 -0.032,0.0119 -0.92069,0.21921 -0.032,0.0119 -0.8628,0.28922 -0.032,0.0119 -0.86486,0.32047 -0.032,0.0119 -0.80903,0.42173 -0.032,0.0119 -0.75114,0.49174 -0.032,0.0119 -0.0661,0.055 1.48245,2.16405 0.0341,-0.0431 0.032,-0.0119 0.715,-0.41738 0.032,-0.0119 0.74497,-0.398 0.032,-0.0119 0.77082,-0.31611 0.03,0.0194 0.002,-0.0312 0.79874,-0.26548 0.032,-0.0119 0.8246,-0.1836 0.032,-0.0119 0.88248,-0.11359 0.032,-0.0119 0.88043,-0.0823 0.032,-0.0119 0.90628,-4.6e-4 0.062,0.008 0.9342,0.0502 0.032,-0.0119 0.96005,0.13205 0.032,-0.0119 0.06,0.0388 -0.65785,-2.34764 -0.092,-0.0269 z m 18.51578,13.99232 0.06,0.0388 0.0279,0.0506 0.86832,1.05018 0.0579,0.07 0.83423,1.09329 0.0279,0.0506 0.83217,1.12454 0.0279,0.0506 0.79809,1.16766 0.0279,0.0506 0.76605,1.17953 0.0279,0.0506 0.73401,1.1914 0.0279,0.0506 0.66995,1.21514 0.0279,0.0506 0.66789,1.24639 0.0279,0.0506 0.60589,1.23888 0.0259,0.0819 0.60383,1.27012 -0.002,0.0312 0.13752,0.28441 1.63478,-0.14845 -0.13546,-0.31566 -0.0259,-0.0819 -0.62969,-1.35201 -0.0279,-0.0506 -0.68964,-1.39076 -0.0279,-0.0506 -0.69375,-1.32826 -0.0279,-0.0506 -0.75576,-1.33578 -0.0279,-0.0506 -0.78985,-1.29266 -0.0279,-0.0506 -0.82188,-1.28079 -0.0579,-0.07 -0.85391,-1.26892 -0.0279,-0.0506 -0.888,-1.22581 -0.0279,-0.0506 -0.95206,-1.20206 -0.0279,-0.0506 -0.95412,-1.17082 -0.0279,-0.0506 -0.0879,-0.0894 -0.93073,1.32047 z m -30.84187,-9.5164 -0.032,0.0119 -0.55163,0.78366 -0.0341,0.0431 -0.52371,0.83428 -0.002,0.0312 -0.46788,0.93556 -0.032,0.0119 -0.40793,0.97432 -0.0341,0.0431 -0.38002,1.02494 -0.002,0.0312 -0.32213,1.09495 -0.002,0.0312 -0.26424,1.16497 -0.032,0.0119 -0.20429,1.20372 -0.004,0.0625 -0.14435,1.24249 1.91006,1.36537 0.14229,-1.21124 0.004,-0.0625 0.19812,-1.10998 0.002,-0.0312 0.25807,-1.07121 0.002,-0.0312 0.31801,-1.03246 -0.03,-0.0194 0.37384,-0.93119 0.004,-0.0625 0.40176,-0.88056 0.002,-0.0312 0.43173,-0.86118 0.032,-0.0119 0.48961,-0.79117 0.002,-0.0312 0.54751,-0.72116 0.002,-0.0312 0.33678,-0.36869 -1.64672,-2.0422 -0.3409,0.43119 z m 40.42693,26.72649 0.15514,0.49129 0.0279,0.0506 0.37961,1.35321 0.03,0.0194 0.32172,1.2832 -0.002,0.0312 0.28969,1.29507 0.28557,1.35757 -0.03,-0.0194 0.22562,1.31881 -0.004,0.0625 0.1357,1.26066 -0.002,0.0312 0.10368,1.27254 -0.002,0.0312 0.0437,1.23377 -0.004,0.0625 0.0137,1.21439 -0.004,0.0625 -0.0268,0.40625 1.92036,1.20912 0.0288,-0.4375 0.004,-0.0625 -0.006,-1.33939 0.002,-0.0312 -0.0375,-1.32753 -0.0259,-0.0819 -0.0996,-1.33503 0.004,-0.0625 -0.16156,-1.34255 0.004,-0.0625 -0.22151,-1.38131 0.002,-0.0312 -0.25148,-1.40068 -0.0279,-0.0506 -0.31348,-1.40819 0.002,-0.0312 -0.37549,-1.41572 0.002,-0.0312 -0.40752,-1.40384 -0.0279,-0.0506 -0.18305,-0.54191 -1.76818,-0.19846 z" />
    <path
       inkscape:connector-curvature="0"
       id="path11103"
       style="font-size:12px;fill:#0a51a1;fill-opacity:1;fill-rule:evenodd;stroke-width:0.625;stroke-linejoin:round"
       d="m 320.81462,757.49675 -2.93495,4.85479 -1.67711,-7.99467 c 1.261,1.9533 3.12432,3.21553 4.61206,3.13988 z" />
  </g>
  <g
     id="g11049"
     style="fill:#0a51a1;fill-opacity:1"
     transform="translate(-160,-623.29077)">
    <path
       inkscape:connector-curvature="0"
       id="path11017"
       style="fill:#0a51a1;fill-opacity:1;stroke:none"
       d="m 461.21918,678.51855 -0.06,-0.0388 -1.14722,-0.61147 -0.0599,-0.0388 -1.15133,-0.54897 -0.03,-0.0194 -1.15545,-0.48647 -0.03,-0.0194 -0.57978,-0.21198 0.35194,2.24759 0.51778,0.20447 0.062,0.008 1.0335,0.4402 0.0599,0.0388 1.03144,0.47144 -0.002,0.0312 1.11725,0.59209 0.06,0.0388 1.05318,0.61583 0.06,0.0388 1.07904,0.69771 0.03,0.0194 1.07286,0.79145 0.03,0.0194 1.04083,0.80332 0.0599,0.0388 1.00674,0.84645 0.06,0.0388 1.00262,0.90894 0.03,0.0194 0.46928,0.46635 0.63718,-1.60803 -0.49925,-0.48572 -0.06,-0.0388 -1.09049,-0.99834 -0.0599,-0.0388 -1.09666,-0.90459 -0.0579,-0.07 -1.13076,-0.86147 -0.0599,-0.0388 -1.13281,-0.83022 -0.06,-0.0388 -1.16896,-0.75585 -0.06,-0.0388 -1.17307,-0.69335 z m -8.14492,-3.01841 -0.032,0.0119 -1.05409,-0.12769 -0.032,0.0119 -1.02618,-0.0771 -0.032,0.0119 -1.00031,0.005 -0.032,0.0119 -0.9724,0.0554 -0.032,0.0119 -0.94655,0.13733 -0.032,0.0119 -0.92069,0.21921 -0.032,0.0119 -0.8628,0.28922 -0.032,0.0119 -0.86486,0.32047 -0.032,0.0119 -0.80903,0.42173 -0.032,0.0119 -0.75114,0.49174 -0.032,0.0119 -0.0661,0.055 1.48245,2.16405 0.0341,-0.0431 0.032,-0.0119 0.715,-0.41738 0.032,-0.0119 0.74497,-0.398 0.032,-0.0119 0.77082,-0.31611 0.03,0.0194 0.002,-0.0312 0.79874,-0.26548 0.032,-0.0119 0.8246,-0.1836 0.032,-0.0119 0.88248,-0.11359 0.032,-0.0119 0.88043,-0.0823 0.032,-0.0119 0.90628,-4.6e-4 0.062,0.008 0.9342,0.0502 0.032,-0.0119 0.96005,0.13205 0.032,-0.0119 0.06,0.0388 -0.65785,-2.34764 -0.092,-0.0269 z m 18.51578,13.99232 0.06,0.0388 0.0279,0.0506 0.86832,1.05018 0.0579,0.07 0.83423,1.09329 0.0279,0.0506 0.83217,1.12454 0.0279,0.0506 0.79809,1.16766 0.0279,0.0506 0.76605,1.17953 0.0279,0.0506 0.73401,1.1914 0.0279,0.0506 0.66995,1.21514 0.0279,0.0506 0.66789,1.24639 0.0279,0.0506 0.60589,1.23888 0.0259,0.0819 0.60383,1.27012 -0.002,0.0312 0.13752,0.28441 1.63478,-0.14845 -0.13546,-0.31566 -0.0259,-0.0819 -0.62969,-1.35201 -0.0279,-0.0506 -0.68964,-1.39076 -0.0279,-0.0506 -0.69375,-1.32826 -0.0279,-0.0506 -0.75576,-1.33578 -0.0279,-0.0506 -0.78985,-1.29266 -0.0279,-0.0506 -0.82188,-1.28079 -0.0579,-0.07 -0.85391,-1.26892 -0.0279,-0.0506 -0.888,-1.22581 -0.0279,-0.0506 -0.95206,-1.20206 -0.0279,-0.0506 -0.95412,-1.17082 -0.0279,-0.0506 -0.0879,-0.0894 -0.93073,1.32047 z m -30.84187,-9.5164 -0.032,0.0119 -0.55163,0.78366 -0.0341,0.0431 -0.52371,0.83428 -0.002,0.0312 -0.46788,0.93556 -0.032,0.0119 -0.40793,0.97432 -0.0341,0.0431 -0.38002,1.02494 -0.002,0.0312 -0.32213,1.09495 -0.002,0.0312 -0.26424,1.16497 -0.032,0.0119 -0.20429,1.20372 -0.004,0.0625 -0.14435,1.24249 1.91006,1.36537 0.14229,-1.21124 0.004,-0.0625 0.19812,-1.10998 0.002,-0.0312 0.25807,-1.07121 0.002,-0.0312 0.31801,-1.03246 -0.03,-0.0194 0.37384,-0.93119 0.004,-0.0625 0.40176,-0.88056 0.002,-0.0312 0.43173,-0.86118 0.032,-0.0119 0.48961,-0.79117 0.002,-0.0312 0.54751,-0.72116 0.002,-0.0312 0.33678,-0.36869 -1.64672,-2.0422 -0.3409,0.43119 z m 40.42693,26.72649 0.15514,0.49129 0.0279,0.0506 0.37961,1.35321 0.03,0.0194 0.32172,1.2832 -0.002,0.0312 0.28969,1.29507 0.28557,1.35757 -0.03,-0.0194 0.22562,1.31881 -0.004,0.0625 0.1357,1.26066 -0.002,0.0312 0.10368,1.27254 -0.002,0.0312 0.0437,1.23377 -0.004,0.0625 0.0137,1.21439 -0.004,0.0625 -0.0268,0.40625 1.92036,1.20912 0.0288,-0.4375 0.004,-0.0625 -0.006,-1.33939 0.002,-0.0312 -0.0376,-1.32753 -0.0259,-0.0819 -0.0995,-1.33503 0.004,-0.0625 -0.16156,-1.34255 0.004,-0.0625 -0.22151,-1.38131 0.002,-0.0312 -0.25148,-1.40068 -0.0279,-0.0506 -0.31348,-1.40819 0.002,-0.0312 -0.37549,-1.41572 0.002,-0.0312 -0.40752,-1.40384 -0.0279,-0.0506 -0.18305,-0.54191 -1.76818,-0.19846 z" />
    <path
       inkscape:connector-curvature="0"
       id="path11055"
       style="font-size:12px;fill:#0a51a1;fill-opacity:1;fill-rule:evenodd;stroke-width:0.625;stroke-linejoin:round"
       d="m 440.93852,687.99362 -2.93495,4.85479 -1.67711,-7.99467 c 1.261,1.9533 3.12432,3.21553 4.61206,3.13988 z" />
  </g>
  <g
     id="g11025"
     style="fill:#ff0000"
     transform="translate(-160,-623.29077)">
    <path
       inkscape:connector-curvature="0"
       id="path11021"
       style="fill:#ff0000;fill-opacity:1;fill-rule:evenodd;stroke:none"
       d="m 516.75,654.59375 -31,17.3125 0.96875,1.75 31,-17.3125 -0.96875,-1.75 z" />
    <path
       inkscape:connector-curvature="0"
       id="path11031"
       style="font-size:12px;fill:#ff0000;fill-rule:evenodd;stroke-width:0.625;stroke-linejoin:round"
       d="m 497.7396,671.90108 -13.79757,2.18439 9.09543,-10.60272 c -0.4406,3.50651 1.46906,6.90066 4.70214,8.41833 z" />
  </g>
  <text
     xml:space="preserve"
     id="text11131"
     style="font-size:44.13310623px;font-style:normal;font-weight:normal;text-align:center;text-anchor:middle;fill:#ff0000;fill-opacity:1;stroke:none;font-family:Arial"
     y="52.085999"
     x="374.22821"><tspan
       id="tspan11133"
       y="52.085999"
       x="374.22821">+</tspan></text>
  <path
     inkscape:connector-curvature="0"
     id="path11309"
     style="fill:none;stroke:#fbdc60;stroke-width:5;stroke-linecap:round;stroke-linejoin:miter;stroke-miterlimit:4;stroke-opacity:1;stroke-dasharray:none"
     d="m 126.95369,183.60075 78.34168,45.398" />
  <path
     inkscape:connector-curvature="0"
     id="path11135"
     style="fill:none;stroke:#c08453;stroke-width:5;stroke-linecap:round;stroke-linejoin:miter;stroke-miterlimit:4;stroke-opacity:1;stroke-dasharray:none"
     d="M 116.90989,280.02128 439.11514,94.41176" />
  <path
     inkscape:connector-curvature="0"
     id="path11141"
     style="fill:#0a51a1;fill-opacity:1;stroke:none"
     d="m 340.72482,123.39173 -0.06,-0.0388 -1.14722,-0.61147 -0.06,-0.0388 -1.15133,-0.54897 -0.03,-0.0194 -1.15545,-0.48646 -0.03,-0.0194 -0.57978,-0.21198 0.35194,2.24759 0.51778,0.20447 0.062,0.008 1.0335,0.4402 0.06,0.0388 1.03144,0.47144 -0.002,0.0312 1.11725,0.59209 0.0599,0.0388 1.05318,0.61583 0.06,0.0388 1.07904,0.69771 0.03,0.0194 1.07286,0.79145 0.03,0.0194 1.04083,0.80332 0.06,0.0388 1.00674,0.84645 0.06,0.0388 1.00262,0.90895 0.03,0.0194 0.46928,0.46635 0.63718,-1.60803 -0.49925,-0.48572 -0.0599,-0.0388 -1.09049,-0.99834 -0.0599,-0.0388 -1.09666,-0.9046 -0.0579,-0.07 -1.13076,-0.86147 -0.0599,-0.0388 -1.13281,-0.83022 -0.06,-0.0388 -1.16896,-0.75585 -0.0599,-0.0388 -1.17307,-0.69336 z m -8.14492,-3.0184 -0.032,0.0119 -1.05409,-0.1277 -0.032,0.0119 -1.02618,-0.0771 -0.032,0.0119 -1.00031,0.005 -0.032,0.0119 -0.9724,0.0554 -0.032,0.0119 -0.94655,0.13733 -0.032,0.0119 -0.92069,0.21921 -0.032,0.0119 -0.8628,0.28922 -0.032,0.0119 -0.86486,0.32047 -0.032,0.0119 -0.80903,0.42173 -0.032,0.0119 -0.75114,0.49175 -0.032,0.0119 -0.0661,0.055 1.48245,2.16405 0.0341,-0.0431 0.032,-0.0119 0.715,-0.41738 0.032,-0.0119 0.74497,-0.398 0.032,-0.0119 0.77082,-0.31611 0.03,0.0194 0.002,-0.0312 0.79874,-0.26548 0.032,-0.0119 0.8246,-0.1836 0.032,-0.0119 0.88248,-0.11359 0.032,-0.0119 0.88043,-0.0823 0.032,-0.0119 0.90628,-4.6e-4 0.062,0.008 0.9342,0.0502 0.032,-0.0119 0.96005,0.13205 0.032,-0.0119 0.0599,0.0388 -0.65785,-2.34764 -0.092,-0.0269 z m 18.51578,13.99232 0.0599,0.0388 0.0279,0.0506 0.86832,1.05018 0.0579,0.07 0.83423,1.09329 0.0279,0.0506 0.83217,1.12454 0.0279,0.0506 0.79809,1.16766 0.0279,0.0506 0.76605,1.17953 0.0279,0.0506 0.73401,1.1914 0.0279,0.0506 0.66995,1.21514 0.0279,0.0506 0.66789,1.24639 0.0279,0.0506 0.60589,1.23888 0.0259,0.0819 0.60383,1.27012 -0.002,0.0312 0.13752,0.28441 1.63478,-0.14845 -0.13546,-0.31566 -0.0259,-0.0819 -0.62969,-1.352 -0.0279,-0.0506 -0.68964,-1.39076 -0.0279,-0.0506 -0.69375,-1.32826 -0.0279,-0.0506 -0.75576,-1.33578 -0.0279,-0.0506 -0.78985,-1.29266 -0.0279,-0.0506 -0.82188,-1.2808 -0.0579,-0.07 -0.85391,-1.26892 -0.0279,-0.0506 -0.888,-1.22581 -0.0279,-0.0506 -0.95206,-1.20206 -0.0279,-0.0506 -0.95412,-1.17082 -0.0279,-0.0506 -0.0879,-0.0894 -0.93073,1.32047 z m -30.84187,-9.5164 -0.032,0.0119 -0.55163,0.78367 -0.0341,0.0431 -0.52371,0.83428 -0.002,0.0312 -0.46788,0.93556 -0.032,0.0119 -0.40793,0.97432 -0.0341,0.0431 -0.38002,1.02494 -0.002,0.0312 -0.32213,1.09495 -0.002,0.0312 -0.26424,1.16497 -0.032,0.0119 -0.20429,1.20372 -0.004,0.0625 -0.14435,1.24249 1.91006,1.36537 0.14229,-1.21124 0.004,-0.0625 0.19812,-1.10998 0.002,-0.0312 0.25807,-1.07121 0.002,-0.0312 0.31801,-1.03246 -0.03,-0.0194 0.37384,-0.93119 0.004,-0.0625 0.40176,-0.88056 0.002,-0.0312 0.43173,-0.86119 0.032,-0.0119 0.48961,-0.79117 0.002,-0.0312 0.54751,-0.72116 0.002,-0.0312 0.33678,-0.36869 -1.64672,-2.0422 -0.3409,0.43119 z m 40.42693,26.72649 0.15514,0.49129 0.0279,0.0506 0.37961,1.35321 0.03,0.0194 0.32172,1.28319 -0.002,0.0312 0.28969,1.29508 0.28557,1.35757 -0.03,-0.0194 0.22562,1.31881 -0.004,0.0625 0.1357,1.26066 -0.002,0.0312 0.10368,1.27254 -0.002,0.0312 0.0437,1.23377 -0.004,0.0625 0.0137,1.21439 -0.004,0.0625 -0.0268,0.40625 1.92036,1.20912 0.0288,-0.4375 0.004,-0.0625 -0.006,-1.33939 0.002,-0.0312 -0.0376,-1.32753 -0.0259,-0.0819 -0.0996,-1.33503 0.004,-0.0625 -0.16156,-1.34255 0.004,-0.0625 -0.22151,-1.38131 0.002,-0.0312 -0.25148,-1.40068 -0.0279,-0.0506 -0.31348,-1.40819 0.002,-0.0312 -0.37549,-1.41572 0.002,-0.0312 -0.40752,-1.40384 -0.0279,-0.0506 -0.18305,-0.54191 -1.76818,-0.19846 z" />
  <path
     inkscape:connector-curvature="0"
     id="path11153"
     style="fill:#0a51a1;fill-opacity:1;stroke:none"
     d="m 300.68352,146.55945 -0.06,-0.0388 -1.14722,-0.61147 -0.06,-0.0388 -1.15133,-0.54897 -0.03,-0.0194 -1.15545,-0.48647 -0.03,-0.0194 -0.57978,-0.21198 0.35194,2.24759 0.51778,0.20447 0.062,0.008 1.0335,0.44019 0.06,0.0388 1.03144,0.47144 -0.002,0.0312 1.11725,0.59209 0.06,0.0388 1.05318,0.61583 0.06,0.0388 1.07904,0.69771 0.03,0.0194 1.07286,0.79145 0.03,0.0194 1.04083,0.80331 0.06,0.0388 1.00674,0.84645 0.06,0.0388 1.00262,0.90894 0.03,0.0194 0.46928,0.46635 0.63718,-1.60803 -0.49925,-0.48572 -0.06,-0.0388 -1.09049,-0.99834 -0.0599,-0.0388 -1.09666,-0.90459 -0.0579,-0.07 -1.13076,-0.86147 -0.0599,-0.0388 -1.13281,-0.83022 -0.0599,-0.0388 -1.16896,-0.75585 -0.06,-0.0388 -1.17307,-0.69335 z m -8.14492,-3.01841 -0.032,0.0119 -1.05409,-0.12769 -0.032,0.0119 -1.02618,-0.0771 -0.032,0.0119 -1.00031,0.005 -0.032,0.0119 -0.9724,0.0554 -0.032,0.0119 -0.94655,0.13733 -0.032,0.0119 -0.92069,0.21921 -0.032,0.0119 -0.8628,0.28922 -0.032,0.0119 -0.86486,0.32047 -0.032,0.0119 -0.80903,0.42173 -0.032,0.0119 -0.75114,0.49174 -0.032,0.0119 -0.0661,0.055 1.48245,2.16405 0.0341,-0.0431 0.032,-0.0119 0.715,-0.41738 0.032,-0.0119 0.74497,-0.398 0.032,-0.0119 0.77082,-0.31611 0.03,0.0194 0.002,-0.0312 0.79874,-0.26548 0.032,-0.0119 0.8246,-0.1836 0.032,-0.0119 0.88248,-0.11359 0.032,-0.0119 0.88043,-0.0823 0.032,-0.0119 0.90628,-4.6e-4 0.062,0.008 0.9342,0.0502 0.032,-0.0119 0.96005,0.13205 0.032,-0.0119 0.06,0.0388 -0.65785,-2.34764 -0.092,-0.0269 z m 18.51578,13.99232 0.06,0.0388 0.0279,0.0506 0.86832,1.05018 0.0579,0.07 0.83423,1.09329 0.0279,0.0506 0.83217,1.12454 0.0279,0.0506 0.79809,1.16766 0.0279,0.0506 0.76605,1.17953 0.0279,0.0506 0.73401,1.19141 0.0279,0.0506 0.66995,1.21515 0.0279,0.0506 0.66789,1.24638 0.0279,0.0506 0.60589,1.23888 0.0259,0.0819 0.60383,1.27012 -0.002,0.0312 0.13752,0.28441 1.63478,-0.14845 -0.13546,-0.31566 -0.0259,-0.0819 -0.62969,-1.35201 -0.0279,-0.0506 -0.68964,-1.39076 -0.0279,-0.0506 -0.69375,-1.32826 -0.0279,-0.0506 -0.75576,-1.33578 -0.0279,-0.0506 -0.78985,-1.29266 -0.0279,-0.0506 -0.82188,-1.28079 -0.0579,-0.07 -0.85391,-1.26892 -0.0279,-0.0506 -0.888,-1.22581 -0.0279,-0.0506 -0.95206,-1.20205 -0.0279,-0.0506 -0.95412,-1.17082 -0.0279,-0.0506 -0.0879,-0.0894 -0.93073,1.32047 z m -30.84187,-9.5164 -0.032,0.0119 -0.55163,0.78365 -0.0341,0.0431 -0.52371,0.83428 -0.002,0.0312 -0.46788,0.93556 -0.032,0.0119 -0.40793,0.97432 -0.0341,0.0431 -0.38002,1.02494 -0.002,0.0312 -0.32213,1.09495 -0.002,0.0312 -0.26424,1.16497 -0.032,0.0119 -0.20429,1.20372 -0.004,0.0625 -0.14435,1.24249 1.91006,1.36537 0.14229,-1.21124 0.004,-0.0625 0.19812,-1.10998 0.002,-0.0312 0.25807,-1.07121 0.002,-0.0312 0.31801,-1.03246 -0.03,-0.0194 0.37384,-0.93119 0.004,-0.0625 0.40176,-0.88056 0.002,-0.0312 0.43173,-0.86118 0.032,-0.0119 0.48961,-0.79117 0.002,-0.0312 0.54751,-0.72116 0.002,-0.0312 0.33678,-0.36869 -1.64672,-2.04221 -0.3409,0.4312 z m 40.42693,26.72649 0.15514,0.49129 0.0279,0.0506 0.37961,1.35321 0.03,0.0194 0.32172,1.2832 -0.002,0.0312 0.28969,1.29507 0.28557,1.35757 -0.03,-0.0194 0.22562,1.31881 -0.004,0.0625 0.1357,1.26066 -0.002,0.0312 0.10368,1.27254 -0.002,0.0312 0.0437,1.23377 -0.004,0.0625 0.0138,1.21439 -0.004,0.0625 -0.0268,0.40625 1.92036,1.20912 0.0288,-0.4375 0.004,-0.0625 -0.006,-1.33939 0.002,-0.0312 -0.0376,-1.32753 -0.0259,-0.0819 -0.0995,-1.33503 0.004,-0.0625 -0.16156,-1.34255 0.004,-0.0625 -0.22151,-1.38131 0.002,-0.0312 -0.25148,-1.40068 -0.0279,-0.0506 -0.31348,-1.40819 0.002,-0.0312 -0.37549,-1.41572 0.002,-0.0312 -0.40752,-1.40384 -0.0279,-0.0506 -0.18305,-0.54191 -1.76818,-0.19846 z" />
  <path
     inkscape:connector-curvature="0"
     id="path11171"
     style="fill:#0a51a1;fill-opacity:1;stroke:none"
     d="m 260.64221,169.72717 -0.0599,-0.0388 -1.14722,-0.61147 -0.06,-0.0388 -1.15133,-0.54897 -0.03,-0.0194 -1.15545,-0.48648 -0.03,-0.0194 -0.57978,-0.21198 0.35194,2.24759 0.51778,0.20447 0.062,0.008 1.0335,0.4402 0.06,0.0388 1.03144,0.47144 -0.002,0.0312 1.11725,0.59209 0.06,0.0388 1.05318,0.61583 0.06,0.0388 1.07904,0.69771 0.03,0.0194 1.07286,0.79145 0.03,0.0194 1.04083,0.80332 0.06,0.0388 1.00674,0.84645 0.06,0.0388 1.00262,0.90893 0.03,0.0194 0.46928,0.46635 0.63718,-1.60803 -0.49925,-0.48572 -0.06,-0.0388 -1.09049,-0.99834 -0.0599,-0.0388 -1.09666,-0.90458 -0.0579,-0.07 -1.13076,-0.86147 -0.0599,-0.0388 -1.13281,-0.83022 -0.0599,-0.0388 -1.16896,-0.75585 -0.06,-0.0388 -1.17307,-0.69334 z m -8.14492,-3.01842 -0.032,0.0119 -1.05409,-0.12768 -0.032,0.0119 -1.02618,-0.0771 -0.032,0.0119 -1.00031,0.005 -0.032,0.0119 -0.9724,0.0554 -0.032,0.0119 -0.94655,0.13733 -0.032,0.0119 -0.92069,0.21921 -0.032,0.0119 -0.8628,0.28922 -0.032,0.0119 -0.86486,0.32047 -0.032,0.0119 -0.80903,0.42173 -0.032,0.0119 -0.75114,0.49173 -0.032,0.0119 -0.0661,0.055 1.48245,2.16405 0.0341,-0.0431 0.032,-0.0119 0.715,-0.41738 0.032,-0.0119 0.74497,-0.398 0.032,-0.0119 0.77082,-0.31611 0.03,0.0194 0.002,-0.0312 0.79874,-0.26548 0.032,-0.0119 0.8246,-0.1836 0.032,-0.0119 0.88248,-0.11359 0.032,-0.0119 0.88043,-0.0823 0.032,-0.0119 0.90628,-4.6e-4 0.062,0.008 0.9342,0.0502 0.032,-0.0119 0.96005,0.13205 0.032,-0.0119 0.06,0.0388 -0.65785,-2.34764 -0.092,-0.0269 z m 18.51578,13.99232 0.0599,0.0388 0.0279,0.0506 0.86832,1.05018 0.0579,0.07 0.83423,1.09329 0.0279,0.0506 0.83217,1.12454 0.0279,0.0506 0.79809,1.16766 0.0279,0.0506 0.76605,1.17953 0.0279,0.0506 0.73401,1.1914 0.0279,0.0506 0.66995,1.21514 0.0279,0.0506 0.66789,1.24639 0.0279,0.0506 0.60589,1.23888 0.0259,0.0819 0.60383,1.27012 -0.002,0.0312 0.13752,0.28441 1.63478,-0.14845 -0.13546,-0.31566 -0.0259,-0.0819 -0.62969,-1.35202 -0.0279,-0.0506 -0.68964,-1.39076 -0.0279,-0.0506 -0.69375,-1.32826 -0.0279,-0.0506 -0.75576,-1.33578 -0.0279,-0.0506 -0.78985,-1.29266 -0.0279,-0.0506 -0.82188,-1.28078 -0.0579,-0.07 -0.85391,-1.26892 -0.0279,-0.0506 -0.888,-1.22581 -0.0279,-0.0506 -0.95206,-1.20206 -0.0279,-0.0506 -0.95412,-1.17082 -0.0279,-0.0506 -0.0879,-0.0894 -0.93073,1.32047 z m -30.84187,-9.5164 -0.032,0.0119 -0.55163,0.78365 -0.0341,0.0431 -0.52371,0.83428 -0.002,0.0312 -0.46788,0.93556 -0.032,0.0119 -0.40793,0.97432 -0.0341,0.0431 -0.38002,1.02494 -0.002,0.0312 -0.32213,1.09495 -0.002,0.0312 -0.26424,1.16497 -0.032,0.0119 -0.20429,1.20372 -0.004,0.0625 -0.14435,1.24249 1.91006,1.36537 0.14229,-1.21124 0.004,-0.0625 0.19812,-1.10998 0.002,-0.0312 0.25807,-1.07121 0.002,-0.0312 0.31801,-1.03246 -0.03,-0.0194 0.37384,-0.93119 0.004,-0.0625 0.40176,-0.88056 0.002,-0.0312 0.43173,-0.86117 0.032,-0.0119 0.48961,-0.79117 0.002,-0.0312 0.54751,-0.72116 0.002,-0.0312 0.33678,-0.36869 -1.64672,-2.0422 -0.3409,0.43119 z m 40.42693,26.72649 0.15514,0.49129 0.0279,0.0506 0.37961,1.35321 0.03,0.0194 0.32172,1.28321 -0.002,0.0312 0.28969,1.29506 0.28557,1.35757 -0.03,-0.0194 0.22562,1.31881 -0.004,0.0625 0.1357,1.26066 -0.002,0.0312 0.10368,1.27254 -0.002,0.0312 0.0437,1.23377 -0.004,0.0625 0.0138,1.21439 -0.004,0.0625 -0.0268,0.40625 1.92036,1.20912 0.0288,-0.4375 0.004,-0.0625 -0.006,-1.33939 0.002,-0.0312 -0.0376,-1.32753 -0.0259,-0.0819 -0.0995,-1.33503 0.004,-0.0625 -0.16156,-1.34255 0.004,-0.0625 -0.22151,-1.38131 0.002,-0.0312 -0.25148,-1.40068 -0.0279,-0.0506 -0.31348,-1.40819 0.002,-0.0312 -0.37549,-1.41572 0.002,-0.0312 -0.40752,-1.40384 -0.0279,-0.0506 -0.18305,-0.54191 -1.76818,-0.19846 z" />
  <path
     inkscape:connector-curvature="0"
     id="path11177"
     style="fill:#0a51a1;fill-opacity:1;stroke:none"
     d="m 380.76611,100.22403 -0.06,-0.0388 -1.14722,-0.61147 -0.0599,-0.0388 -1.15133,-0.54897 -0.03,-0.0194 -1.15545,-0.48647 -0.03,-0.0194 -0.57978,-0.21198 0.35194,2.24759 0.51778,0.20447 0.062,0.008 1.0335,0.44019 0.0599,0.0388 1.03144,0.47144 -0.002,0.0312 1.11725,0.59209 0.0599,0.0388 1.05318,0.61583 0.06,0.0388 1.07904,0.69771 0.03,0.0194 1.07286,0.79145 0.03,0.0194 1.04083,0.80331 0.0599,0.0388 1.00674,0.84645 0.06,0.0388 1.00262,0.90894 0.03,0.0194 0.46928,0.46635 0.63718,-1.60803 -0.49925,-0.48572 -0.0599,-0.0388 -1.09049,-0.99834 -0.0599,-0.0388 -1.09666,-0.90459 -0.0579,-0.07 -1.13076,-0.86147 -0.0599,-0.0388 -1.13281,-0.83022 -0.0599,-0.0388 -1.16896,-0.75585 -0.06,-0.0388 -1.17307,-0.69335 z m -8.14492,-3.01841 -0.032,0.0119 -1.05409,-0.12769 -0.032,0.0119 -1.02618,-0.0771 -0.032,0.0119 -1.00031,0.005 -0.032,0.0119 -0.9724,0.0554 -0.032,0.0119 -0.94655,0.13733 -0.032,0.0119 -0.92069,0.21921 -0.032,0.0119 -0.8628,0.28922 -0.032,0.0119 -0.86486,0.32047 -0.032,0.0119 -0.80903,0.42173 -0.032,0.0119 -0.75114,0.49174 -0.032,0.0119 -0.0661,0.055 1.48245,2.16405 0.0341,-0.0431 0.032,-0.0119 0.715,-0.41738 0.032,-0.0119 0.74497,-0.398 0.032,-0.0119 0.77082,-0.31611 0.03,0.0194 0.002,-0.0312 0.79874,-0.26548 0.032,-0.0119 0.8246,-0.1836 0.032,-0.0119 0.88248,-0.11359 0.032,-0.0119 0.88043,-0.0823 0.032,-0.0119 0.90628,-4.6e-4 0.062,0.008 0.9342,0.0502 0.032,-0.0119 0.96005,0.13205 0.032,-0.0119 0.06,0.0388 -0.65785,-2.34764 -0.092,-0.0269 z m 18.51578,13.99232 0.0599,0.0388 0.0279,0.0506 0.86832,1.05018 0.0579,0.07 0.83423,1.09329 0.0279,0.0506 0.83217,1.12454 0.0279,0.0506 0.79809,1.16766 0.0279,0.0506 0.76605,1.17953 0.0279,0.0506 0.73401,1.1914 0.0279,0.0506 0.66995,1.21514 0.0279,0.0506 0.66789,1.24638 0.0279,0.0506 0.60589,1.23888 0.0259,0.0819 0.60383,1.27012 -0.002,0.0312 0.13752,0.28441 1.63478,-0.14845 -0.13546,-0.31566 -0.0259,-0.0819 -0.62969,-1.35201 -0.0279,-0.0506 -0.68964,-1.39076 -0.0279,-0.0506 -0.69375,-1.32826 -0.0279,-0.0506 -0.75576,-1.33578 -0.0279,-0.0506 -0.78985,-1.29266 -0.0279,-0.0506 -0.82188,-1.28079 -0.0579,-0.07 -0.85391,-1.26892 -0.0279,-0.0506 -0.888,-1.22581 -0.0279,-0.0506 -0.95206,-1.20206 -0.0279,-0.0506 -0.95412,-1.17082 -0.0279,-0.0506 -0.0879,-0.0894 -0.93073,1.32047 z m -30.84187,-9.5164 -0.032,0.0119 -0.55163,0.78365 -0.0341,0.0431 -0.52371,0.83428 -0.002,0.0312 -0.46788,0.93556 -0.032,0.0119 -0.40793,0.97432 -0.0341,0.0431 -0.38002,1.02494 -0.002,0.0312 -0.32213,1.09495 -0.002,0.0312 -0.26424,1.16497 -0.032,0.0119 -0.20429,1.20372 -0.004,0.0625 -0.14435,1.24249 1.91006,1.36537 0.14229,-1.21124 0.004,-0.0625 0.19812,-1.10998 0.002,-0.0312 0.25807,-1.07121 0.002,-0.0312 0.31801,-1.03246 -0.03,-0.0194 0.37384,-0.93119 0.004,-0.0625 0.40176,-0.88056 0.002,-0.0312 0.43173,-0.86118 0.032,-0.0119 0.48961,-0.79117 0.002,-0.0312 0.54751,-0.72116 0.002,-0.0312 0.33678,-0.36869 -1.64672,-2.04221 -0.3409,0.4312 z m 40.42693,26.72649 0.15514,0.49129 0.0279,0.0506 0.37961,1.35321 0.03,0.0194 0.32172,1.2832 -0.002,0.0312 0.28969,1.29507 0.28557,1.35757 -0.03,-0.0194 0.22562,1.31881 -0.004,0.0625 0.1357,1.26066 -0.002,0.0312 0.10368,1.27254 -0.002,0.0312 0.0437,1.23377 -0.004,0.0625 0.0137,1.21439 -0.004,0.0625 -0.0268,0.40625 1.92036,1.20912 0.0288,-0.4375 0.004,-0.0625 -0.006,-1.33939 0.002,-0.0312 -0.0376,-1.32753 -0.0259,-0.0819 -0.0996,-1.33503 0.004,-0.0625 -0.16156,-1.34255 0.004,-0.0625 -0.22151,-1.38131 0.002,-0.0312 -0.25148,-1.40068 -0.0279,-0.0506 -0.31348,-1.40819 0.002,-0.0312 -0.37549,-1.41572 0.002,-0.0312 -0.40752,-1.40384 -0.0279,-0.0506 -0.18305,-0.54191 -1.76818,-0.19846 z" />
  <path
     inkscape:connector-curvature="0"
     id="path11189"
     style="fill:#ff0000;fill-opacity:1;fill-rule:evenodd;stroke:none"
     d="m 404.45767,95.79093 31,-17.3125 -0.96875,-1.75 -31,17.3125 0.96875,1.75 z" />
  <path
     inkscape:connector-curvature="0"
     id="path11191"
     style="font-size:12px;fill:#ff0000;fill-rule:evenodd;stroke-width:0.625;stroke-linejoin:round"
     d="m 423.46807,78.4836 13.79757,-2.18439 -9.09543,10.60272 c 0.4406,-3.5065 -1.46906,-6.90066 -4.70214,-8.41833 z" />
  <text
     xml:space="preserve"
     id="text11193"
     style="font-size:44.13310623px;font-style:normal;font-weight:normal;text-align:center;text-anchor:middle;fill:#ff0000;fill-opacity:1;stroke:none;font-family:Arial"
     y="97.082214"
     x="453.77515"><tspan
       id="tspan11195"
       y="97.082214"
       x="453.77515"></tspan></text>
  <path
     inkscape:connector-curvature="0"
     id="path11167"
     style="font-size:12px;fill:#0a51a1;fill-opacity:1;fill-rule:evenodd;stroke-width:0.625;stroke-linejoin:round"
     d="m 286.35732,211.38994 -3.66917,6.0693 -2.09667,-9.99467 c 1.57646,2.44195 3.90592,4.01995 5.76584,3.92537 z" />
  <path
     inkscape:connector-curvature="0"
     id="path11173"
     style="font-size:12px;fill:#0a51a1;fill-opacity:1;fill-rule:evenodd;stroke-width:0.625;stroke-linejoin:round"
     d="m 234.67383,184.14264 2.93495,-4.85479 1.67711,7.99467 c -1.261,-1.9533 -3.12432,-3.21553 -4.61206,-3.13988 z" />
  <path
     inkscape:connector-curvature="0"
     id="path11261"
     style="font-size:12px;fill:#0a51a1;fill-opacity:1;fill-rule:evenodd;stroke-width:0.625;stroke-linejoin:round"
     d="m 326.39912,188.22225 -3.66917,6.0693 -2.09667,-9.99467 c 1.57646,2.44195 3.90592,4.01995 5.76584,3.92537 z" />
  <path
     inkscape:connector-curvature="0"
     id="path11263"
     style="font-size:12px;fill:#0a51a1;fill-opacity:1;fill-rule:evenodd;stroke-width:0.625;stroke-linejoin:round"
     d="m 274.71563,160.97495 2.93495,-4.85479 1.67711,7.99467 c -1.261,-1.9533 -3.12432,-3.21553 -4.61206,-3.13988 z" />
  <path
     inkscape:connector-curvature="0"
     id="path11271"
     style="font-size:12px;fill:#0a51a1;fill-opacity:1;fill-rule:evenodd;stroke-width:0.625;stroke-linejoin:round"
     d="m 366.44042,165.05454 -3.66917,6.0693 -2.09667,-9.99467 c 1.57646,2.44195 3.90592,4.01995 5.76584,3.92537 z" />
  <path
     inkscape:connector-curvature="0"
     id="path11273"
     style="font-size:12px;fill:#0a51a1;fill-opacity:1;fill-rule:evenodd;stroke-width:0.625;stroke-linejoin:round"
     d="m 314.75693,137.80724 2.93495,-4.85479 1.67711,7.99467 c -1.261,-1.9533 -3.12432,-3.21553 -4.61206,-3.13988 z" />
  <path
     inkscape:connector-curvature="0"
     id="path11281"
     style="font-size:12px;fill:#0a51a1;fill-opacity:1;fill-rule:evenodd;stroke-width:0.625;stroke-linejoin:round"
     d="m 406.48171,141.88683 -3.66917,6.0693 -2.09667,-9.99467 c 1.57646,2.44195 3.90592,4.01995 5.76584,3.92537 z" />
  <path
     inkscape:connector-curvature="0"
     id="path11283"
     style="font-size:12px;fill:#0a51a1;fill-opacity:1;fill-rule:evenodd;stroke-width:0.625;stroke-linejoin:round"
     d="m 354.79822,114.63953 2.93495,-4.85479 1.67711,7.99467 c -1.261,-1.9533 -3.12432,-3.21553 -4.61206,-3.13988 z" />
  <g
     id="g11313"
     style="fill:#ff0000"
     transform="translate(-160,-623.29077)">
    <path
       inkscape:connector-curvature="0"
       id="path11311"
       style="fill:#ff0000;fill-opacity:1;fill-rule:evenodd;stroke:none"
       d="m 311.09375,804.90625 c -0.44751,0.0202 -0.82698,0.33558 -0.92878,0.77183 -0.10179,0.43625 0.0989,0.88697 0.49128,1.10317 l 54.4375,31.5625 c 0.48325,0.27614 1.09886,0.10825 1.375,-0.375 0.27614,-0.48325 0.10825,-1.09886 -0.375,-1.375 l -54.4375,-31.53125 c -0.16779,-0.10687 -0.36363,-0.16127 -0.5625,-0.15625 z" />
    <path
       inkscape:connector-curvature="0"
       id="path11319"
       style="font-size:12px;fill:#ff0000;fill-rule:evenodd;stroke-width:0.625;stroke-linejoin:round"
       d="m 358.97511,828.03546 8.92667,10.74517 -13.76131,-2.40223 c 3.23948,-1.41263 5.18167,-4.78827 4.83464,-8.34294 z" />
  </g>
  <g
     id="g11323"
     style="fill:#34a02c;fill-opacity:1"
     transform="translate(-160,-623.29077)">
    <path
       inkscape:connector-curvature="0"
       id="path11321"
       style="fill:#34a02c;fill-opacity:1;fill-rule:evenodd;stroke:none"
       d="m 315.8125,832.4375 -47.03125,27.09375 2,3.46875 47.03125,-27.09375 -2,-3.46875 z" />
    <path
       inkscape:connector-curvature="0"
       id="path11329"
       style="font-size:12px;fill:#34a02c;fill-opacity:1;fill-rule:evenodd;stroke-width:0.625;stroke-linejoin:round"
       d="m 278.86904,861.60403 -13.76744,2.36686 8.95426,-10.7222 c -0.39414,3.51204 1.56029,6.8806 4.81318,8.35534 z" />
  </g>
  <g
     id="g11331"
     style="fill:#34a02c;fill-opacity:1"
     transform="translate(27.61827,-559.81392)">
    <path
       inkscape:connector-curvature="0"
       id="path11333"
       style="fill:#34a02c;fill-opacity:1;fill-rule:evenodd;stroke:none"
       d="m 315.8125,832.4375 -47.03125,27.09375 2,3.46875 47.03125,-27.09375 -2,-3.46875 z" />
    <path
       inkscape:connector-curvature="0"
       id="path11335"
       style="font-size:12px;fill:#34a02c;fill-opacity:1;fill-rule:evenodd;stroke-width:0.625;stroke-linejoin:round"
       d="m 278.86904,861.60403 -13.76744,2.36686 8.95426,-10.7222 c -0.39414,3.51204 1.56029,6.8806 4.81318,8.35534 z" />
  </g>
  <g
     id="g11337"
     style="fill:#ff0000"
     transform="translate(13.15519,-544.54734)">
    <path
       inkscape:connector-curvature="0"
       id="path11339"
       style="fill:#ff0000;fill-opacity:1;fill-rule:evenodd;stroke:none"
       d="m 331.6178,818.93462 33.47595,19.40913 c 0.48325,0.27614 1.09886,0.10825 1.375,-0.375 0.27614,-0.48325 0.10825,-1.09886 -0.375,-1.375 l -31.63821,-18.32546 -2.83774,0.66633 z" />
    <path
       inkscape:connector-curvature="0"
       id="path11341"
       style="font-size:12px;fill:#ff0000;fill-rule:evenodd;stroke-width:0.625;stroke-linejoin:round"
       d="m 358.97511,828.03546 8.92667,10.74517 -13.76131,-2.40223 c 3.23948,-1.41263 5.18167,-4.78827 4.83464,-8.34294 z" />
  </g>
  <g
     id="g11345"
     style="fill:#0a51a1;fill-opacity:1"
     transform="translate(-160,-623.29077)">
    <path
       inkscape:connector-curvature="0"
       id="path11343"
       style="fill:#0a51a1;fill-opacity:1;fill-rule:evenodd;stroke:none"
       d="m 504.90625,861.47827 2,0 0,-6.375 -2,0 0,6.375 z m 0,14 2,0 0,-12 -2,0 0,12 z m 0,14 2,0 0,-12 -2,0 0,12 z m 0,8.625 2,0 0,-6.625 -2,0 0,6.625 z" />
    <path
       inkscape:connector-curvature="0"
       id="path11351"
       style="font-size:12px;fill:#0a51a1;fill-opacity:1;fill-rule:evenodd;stroke-width:0.625;stroke-linejoin:round"
       d="m 501.06816,865.56409 4.82126,-13.11106 4.82127,13.11106 c -2.84647,-2.0946 -6.74094,-2.08253 -9.64253,0 z" />
  </g>
  <text
     xml:space="preserve"
     id="text11353"
     style="font-size:20.8088398px;font-style:italic;font-weight:normal;text-align:center;text-anchor:middle;fill:#0a51a1;fill-opacity:1;stroke:none;font-family:Times New Roman"
     y="239.44427"
     x="361.40314"><tspan
       id="tspan11355"
       style="font-weight:bold;fill:#0a51a1;fill-opacity:1"
       y="239.44427"
       x="361.40314">B</tspan></text>
  <text
     xml:space="preserve"
     id="text11357"
     style="font-size:20.8088398px;font-style:italic;font-weight:normal;text-align:center;text-anchor:middle;fill:#ff0000;fill-opacity:1;stroke:none;font-family:Times New Roman"
     y="280.82477"
     x="379.08026"><tspan
       id="tspan11359"
       style="font-weight:bold;fill:#ff0000;fill-opacity:1"
       y="280.82477"
       x="379.08026">I</tspan></text>
  <text
     xml:space="preserve"
     id="text11361"
     style="font-size:20.8088398px;font-style:italic;font-weight:normal;text-align:center;text-anchor:middle;fill:#34a02c;fill-opacity:1;stroke:none;font-family:Times New Roman"
     y="286.44928"
     x="300.73859"><tspan
       id="tspan11363"
       style="font-weight:bold;fill:#34a02c;fill-opacity:1"
       y="286.44928"
       x="300.73859">F</tspan></text>
  <text
     xml:space="preserve"
     id="text11365"
     style="font-size:28px;font-style:normal;font-weight:normal;text-align:center;text-anchor:middle;fill:#34a02c;fill-opacity:1;stroke:none;font-family:Ubuntu;-inkscape-font-specification:'Ubuntu,';font-stretch:normal;font-variant:normal;writing-mode:lr;line-height:125%"
     y="260.14386"
     x="88.595673"
     sodipodi:linespacing="125%"><tspan
       id="tspan11367"
       y="260.14386"
       x="88.595673"
       style="-inkscape-font-specification:'Ubuntu,';font-family:Ubuntu;font-weight:normal;font-style:normal;font-stretch:normal;font-variant:normal;font-size:28px;text-anchor:middle;text-align:center;writing-mode:lr;line-height:125%">Force</tspan></text>
  <text
     xml:space="preserve"
     id="text11369"
     style="font-size:28px;font-style:normal;font-weight:normal;text-align:center;text-anchor:middle;fill:#c08453;fill-opacity:1;stroke:none;font-family:Ubuntu;-inkscape-font-specification:'Ubuntu,';font-stretch:normal;font-variant:normal;writing-mode:lr;line-height:125%"
     y="291.27039"
     x="168.33417"
     sodipodi:linespacing="125%"><tspan
       id="tspan11371"
       y="291.27039"
       x="168.33417"
       style="fill:#c08453;fill-opacity:1;-inkscape-font-specification:'Ubuntu,';font-family:Ubuntu;font-weight:normal;font-style:normal;font-stretch:normal;font-variant:normal;font-size:28px;text-anchor:middle;text-align:center;writing-mode:lr;line-height:125%">Rail</tspan></text>
  <text
     xml:space="preserve"
     id="text11373"
     style="font-size:28px;font-style:normal;font-weight:normal;text-align:center;text-anchor:middle;fill:#c08453;fill-opacity:1;stroke:none;font-family:Ubuntu;-inkscape-font-specification:'Ubuntu,';font-stretch:normal;font-variant:normal;writing-mode:lr;line-height:125%"
     y="220.56201"
     x="28.524399"
     sodipodi:linespacing="125%"><tspan
       id="tspan11375"
       y="220.56201"
       x="28.524399"
       style="fill:#c08453;fill-opacity:1;-inkscape-font-specification:'Ubuntu,';font-family:Ubuntu;font-weight:normal;font-style:normal;font-stretch:normal;font-variant:normal;font-size:28px;text-anchor:middle;text-align:center;writing-mode:lr;line-height:125%">Rail</tspan></text>
  <text
     xml:space="preserve"
     id="text11377"
     style="font-size:28px;font-style:normal;font-weight:normal;text-align:center;text-anchor:middle;fill:#fbdc60;fill-opacity:1;stroke:none;font-family:Ubuntu;-inkscape-font-specification:'Ubuntu,';font-stretch:normal;font-variant:normal;writing-mode:lr;line-height:125%"
     y="177.97626"
     x="65.083847"
     sodipodi:linespacing="125%"><tspan
       id="tspan11379"
       y="177.97626"
       x="65.083847"
       style="-inkscape-font-specification:'Ubuntu,';font-family:Ubuntu;font-weight:normal;font-style:normal;font-stretch:normal;font-variant:normal;font-size:28px;text-anchor:middle;text-align:center;writing-mode:lr;line-height:125%;fill:#fbdc60;fill-opacity:1">Projectile</tspan></text>
  <g
     id="g11389"
     style="fill:#0a51a1;fill-opacity:1"
     transform="translate(-160,-623.29077)">
    <text
       xml:space="preserve"
       id="text11381"
       style="font-size:28px;font-style:normal;font-weight:normal;text-align:center;text-anchor:middle;fill:#0a51a1;fill-opacity:1;stroke:none;font-family:Ubuntu;-inkscape-font-specification:'Ubuntu,';font-stretch:normal;font-variant:normal;writing-mode:lr;line-height:125%"
       y="681.14313"
       x="333.15521"
       sodipodi:linespacing="125%"><tspan
         id="tspan11383"
         y="681.14313"
         x="333.15521"
         style="-inkscape-font-specification:'Ubuntu,';font-family:Ubuntu;font-weight:normal;font-style:normal;font-stretch:normal;font-variant:normal;font-size:28px;text-anchor:middle;text-align:center;writing-mode:lr;line-height:125%">Magnetic</tspan></text>
    <text
       xml:space="preserve"
       id="text11385"
       style="font-size:28px;font-style:normal;font-weight:normal;text-align:center;text-anchor:middle;fill:#0a51a1;fill-opacity:1;stroke:none;font-family:Ubuntu;-inkscape-font-specification:'Ubuntu,';font-stretch:normal;font-variant:normal;writing-mode:lr;line-height:125%"
       y="710.8728"
       x="334.36047"
       sodipodi:linespacing="125%"><tspan
         id="tspan11387"
         y="710.8728"
         x="334.36047"
         style="-inkscape-font-specification:'Ubuntu,';font-family:Ubuntu;font-weight:normal;font-style:normal;font-stretch:normal;font-variant:normal;font-size:28px;text-anchor:middle;text-align:center;writing-mode:lr;line-height:125%">field</tspan></text>
  </g>
  <text
     xml:space="preserve"
     id="text11395"
     style="font-size:28px;font-style:normal;font-weight:normal;text-align:center;text-anchor:middle;fill:#ff0000;fill-opacity:1;stroke:none;font-family:Ubuntu;-inkscape-font-specification:'Ubuntu,';font-stretch:normal;font-variant:normal;writing-mode:lr;line-height:125%"
     y="32.504761"
     x="294.92331"
     sodipodi:linespacing="125%"><tspan
       id="tspan11397"
       y="32.504761"
       x="294.92331"
       style="-inkscape-font-specification:'Ubuntu,';font-family:Ubuntu;font-weight:normal;font-style:normal;font-stretch:normal;font-variant:normal;font-size:28px;text-anchor:middle;text-align:center;writing-mode:lr;line-height:125%">Current</tspan></text>
</svg>
