<?xml version="1.0" encoding="UTF-8" standalone="no"?>
<!-- Created with Inkscape (http://www.inkscape.org/) -->

<svg
   xmlns:dc="http://purl.org/dc/elements/1.1/"
   xmlns:cc="http://creativecommons.org/ns#"
   xmlns:rdf="http://www.w3.org/1999/02/22-rdf-syntax-ns#"
   xmlns:svg="http://www.w3.org/2000/svg"
   xmlns="http://www.w3.org/2000/svg"
   xmlns:xlink="http://www.w3.org/1999/xlink"
   xmlns:sodipodi="http://sodipodi.sourceforge.net/DTD/sodipodi-0.dtd"
   xmlns:inkscape="http://www.inkscape.org/namespaces/inkscape"
   width="147.16209"
   height="145.63942"
   id="svg2393"
   sodipodi:version="0.32"
   inkscape:version="0.48.2 r9819"
   version="1.0"
   sodipodi:docname="Bazaar_Logo.svg"
   inkscape:output_extension="org.inkscape.output.svg.inkscape">
  <defs
     id="defs2395">
    <linearGradient
       id="linearGradient5444">
      <stop
         id="stop5446"
         offset="0"
         style="stop-color:#729fcf;stop-opacity:1;" />
      <stop
         style="stop-color:#3465a4;stop-opacity:1;"
         offset="0.5"
         id="stop4547" />
      <stop
         id="stop5448"
         offset="1"
         style="stop-color:#204ab7;stop-opacity:1;" />
    </linearGradient>
    <linearGradient
       inkscape:collect="always"
       xlink:href="#linearGradient5444"
       id="linearGradient2200"
       x1="372.24512"
       y1="69.037941"
       x2="372.24512"
       y2="0"
       gradientUnits="userSpaceOnUse"
       gradientTransform="matrix(1.027169,0,0,1,571.72345,145.71693)" />
    <inkscape:perspective
       sodipodi:type="inkscape:persp3d"
       inkscape:vp_x="0 : 526.18109 : 1"
       inkscape:vp_y="0 : 1000 : 0"
       inkscape:vp_z="744.09448 : 526.18109 : 1"
       inkscape:persp3d-origin="372.04724 : 350.78739 : 1"
       id="perspective2401" />
    <filter
       inkscape:collect="always"
       id="filter3816"
       color-interpolation-filters="sRGB">
      <feGaussianBlur
         inkscape:collect="always"
         stdDeviation="2.628035"
         id="feGaussianBlur3818" />
    </filter>
  </defs>
  <sodipodi:namedview
     id="base"
     pagecolor="#ffffff"
     bordercolor="#666666"
     borderopacity="1.0"
     gridtolerance="10000"
     guidetolerance="10"
     objecttolerance="10"
     inkscape:pageopacity="0.0"
     inkscape:pageshadow="2"
     inkscape:zoom="3.8135717"
     inkscape:cx="150.63521"
     inkscape:cy="69.280761"
     inkscape:document-units="px"
     inkscape:current-layer="layer1"
     showgrid="false"
     inkscape:window-width="1912"
     inkscape:window-height="1127"
     inkscape:window-x="0"
     inkscape:window-y="1"
     fit-margin-top="0"
     fit-margin-left="0"
     fit-margin-right="0"
     fit-margin-bottom="0"
     inkscape:window-maximized="1" />
  <metadata
     id="metadata2398">
    <rdf:RDF>
      <cc:Work
         rdf:about="">
        <dc:format>image/svg+xml</dc:format>
        <dc:type
           rdf:resource="http://purl.org/dc/dcmitype/StillImage" />
      </cc:Work>
    </rdf:RDF>
  </metadata>
  <g
     inkscape:label="Layer 1"
     inkscape:groupmode="layer"
     id="layer1"
     transform="translate(-569.27628,-142.39157)">
    <path
       style="fill:url(#linearGradient2200);fill-opacity:1;stroke:none;display:inline"
       d="m 588.19225,214.74818 115.75,0 c -0.92285,-4.03364 -54.41857,-59.35329 -57.375,-59.28125 -2.01909,0.0492 -54.73593,53.63125 -58.375,59.28125 z"
       id="rect1307"
       inkscape:export-filename="/home/matt/BZR Header.png"
       inkscape:export-xdpi="96"
       inkscape:export-ydpi="96"
       inkscape:connector-curvature="0" />
    <rect
       style="fill:#555753;fill-opacity:1;stroke:#555753;stroke-width:2.39668512;stroke-linecap:round;stroke-linejoin:round;stroke-miterlimit:4;stroke-opacity:1;stroke-dasharray:none;stroke-dashoffset:0;filter:url(#filter3816)"
       id="rect2994"
       width="99.756363"
       height="102.74053"
       x="555.18207"
       y="-350.31754"
       transform="matrix(0.71111921,0.70307145,-0.71111921,0.70307145,0,0)"
       rx="14.259853"
       ry="14.259853" />
    <g
       style="display:inline"
       id="g3653"
       transform="translate(754.85055,325.08453)"
       inkscape:export-filename="/home/matt/Projects/Ubuntu/Bazaar Website/bzr icon 64.png"
       inkscape:export-xdpi="45.012665"
       inkscape:export-ydpi="45.012665">
      <path
         id="path2749"
         d="m -143.51431,-75.4275 c -14.97337,-15.14937 -27.66194,-28.23269 -28.19679,-29.07403 -2.92799,-4.60585 -0.63253,-7.66494 27.9956,-37.30906 23.75294,-24.59591 29.63128,-30.03663 32.45248,-30.03663 2.80647,0 8.6838,5.3539 31.696862,28.87396 19.86165,20.29923 28.25155,29.72645 28.25155,31.7445 0,4.19578 -57.896652,63.34557 -62.003532,63.34557 -2.17649,0 -10.25807,-7.37184 -30.19617,-27.54431 z"
         style="fill:#fce94f;fill-opacity:1;stroke:#fce94f;stroke-width:4;stroke-miterlimit:4;stroke-opacity:1;stroke-dasharray:none;display:inline"
         inkscape:connector-curvature="0" />
      <path
         id="path2721"
         d="m -118.75152,-74.850683 c -0.4686,-0.4686 -0.852,-11.10776 -0.852,-23.64263 l 0,-22.790637 -5.24863,0 c -6.35665,0 -6.37703,0.0889 3.57899,-15.61609 4.50081,-7.09974 7.89075,-11.19165 9.07732,-10.95701 1.84731,0.3653 16.873957,22.94856 16.873957,25.35955 0,0.66746 -2.31842,1.21355 -5.152047,1.21355 -3.37296,0 -5.403,0.65405 -5.87883,1.89406 -1.20683,3.14494 2.90025,13.06243 9.056527,21.869067 6.3081,9.02381 6.83443,10.85572 3.83435,13.34557 -1.66681,1.38332 -2.72318,0.90654 -6.789887,-3.06448 -2.64878,-2.58646 -5.21108,-4.30759 -5.69395,-3.82469 -0.4829,0.4829 -0.87798,4.52022 -0.87798,8.97185 l 0,8.09387 -5.53792,0 c -3.04584,0 -5.92132,-0.3834 -6.3899,-0.85198 z"
         style="fill:#c4a000;fill-opacity:1;stroke:#c4a000;display:inline"
         inkscape:connector-curvature="0" />
      <path
         id="path2727"
         d="m -120.75152,-76.85072 c -0.4686,-0.4686 -0.852,-11.10776 -0.852,-23.64263 l 0,-22.79064 -5.24863,0 c -6.35665,0 -6.37703,0.0889 3.57899,-15.61608 4.50081,-7.09974 7.89075,-11.19165 9.07732,-10.95701 1.84731,0.3653 16.873952,22.94856 16.873952,25.35954 0,0.66746 -2.31842,1.21355 -5.152042,1.21355 -3.37296,0 -5.403,0.65405 -5.87883,1.89406 -1.20683,3.14494 2.90025,13.06243 9.056522,21.86907 6.3081,9.02381 6.83443,10.85572 3.83435,13.34557 -1.66681,1.38332 -2.72318,0.90654 -6.789882,-3.06448 -2.64878,-2.58646 -5.21108,-4.30759 -5.69395,-3.82469 -0.4829,0.4829 -0.87798,4.52022 -0.87798,8.97185 l 0,8.09387 -5.53792,0 c -3.04584,0 -5.92132,-0.3834 -6.3899,-0.85198 z"
         style="fill:#555753;fill-opacity:1;stroke:#2e3436;stroke-opacity:1;display:inline"
         inkscape:connector-curvature="0" />
      <path
         d="m -143.51431,-75.4275 c -14.97337,-15.14937 -27.66194,-28.23269 -28.19679,-29.07403 -2.92799,-4.60585 -0.63253,-7.66494 27.9956,-37.30906 23.75294,-24.59591 29.63128,-30.03663 32.45248,-30.03663 2.80647,0 8.6838,5.3539 31.696858,28.87396 19.86165,20.29923 28.25155,29.72645 28.25155,31.7445 0,4.19578 -57.896648,63.34557 -62.003528,63.34557 -2.17649,0 -10.25807,-7.37184 -30.19617,-27.54431 z m 60.779708,-3.38081 c 19.45052,-19.97823 28.86401,-30.54129 28.86401,-32.38877 0,-3.15965 -54.417048,-59.48887 -57.399198,-59.4162 -2.04448,0.0498 -56.12913,55.00208 -58.54656,59.48576 -2.00521,3.7191 -0.71601,5.36564 24.57023,31.38104 27.58385,28.37929 29.88199,30.58532 31.86243,30.58532 0.98177,0 14.773868,-13.34121 30.649088,-29.64715 z"
         style="fill:#555753;fill-opacity:1;stroke:#2e3436;stroke-width:2;stroke-miterlimit:4;stroke-opacity:1;stroke-dasharray:none;display:inline"
         id="path2736"
         inkscape:connector-curvature="0" />
    </g>
  </g>
</svg>
