<?xml version="1.0" encoding="UTF-8" standalone="no"?>
<!-- Created with Inkscape (http://www.inkscape.org/) -->

<svg
   xmlns:dc="http://purl.org/dc/elements/1.1/"
   xmlns:cc="http://creativecommons.org/ns#"
   xmlns:rdf="http://www.w3.org/1999/02/22-rdf-syntax-ns#"
   xmlns:svg="http://www.w3.org/2000/svg"
   xmlns="http://www.w3.org/2000/svg"
   xmlns:xlink="http://www.w3.org/1999/xlink"
   xmlns:sodipodi="http://sodipodi.sourceforge.net/DTD/sodipodi-0.dtd"
   xmlns:inkscape="http://www.inkscape.org/namespaces/inkscape"
   version="1.0"
   width="128"
   height="128"
   viewBox="0 0 128 128"
   id="svg607"
   xml:space="preserve"
   inkscape:version="0.48.2 r9819"
   sodipodi:docname="Umbrello_Logo.svg"><metadata
   id="metadata20"><rdf:RDF><cc:Work
       rdf:about=""><dc:format>image/svg+xml</dc:format><dc:type
         rdf:resource="http://purl.org/dc/dcmitype/StillImage" /></cc:Work></rdf:RDF></metadata><sodipodi:namedview
   pagecolor="#ffffff"
   bordercolor="#666666"
   borderopacity="1"
   objecttolerance="10"
   gridtolerance="10"
   guidetolerance="10"
   inkscape:pageopacity="0"
   inkscape:pageshadow="2"
   inkscape:window-width="1912"
   inkscape:window-height="1127"
   id="namedview18"
   showgrid="false"
   inkscape:zoom="5.2149125"
   inkscape:cx="-5.6879839"
   inkscape:cy="43.278871"
   inkscape:window-x="0"
   inkscape:window-y="1"
   inkscape:window-maximized="1"
   inkscape:current-layer="g666" />
  <defs
   id="defs666">
    <linearGradient
   id="linearGradient668">
      <stop
   style="stop-color:#000000;stop-opacity:1"
   offset="0"
   id="stop669" />
      <stop
   style="stop-color:#ffffff;stop-opacity:1"
   offset="1"
   id="stop670" />
    </linearGradient>
    <linearGradient
   x1="0"
   y1="2e-008"
   x2="1"
   y2="2e-008"
   id="linearGradient671"
   xlink:href="#linearGradient668"
   gradientUnits="objectBoundingBox"
   spreadMethod="pad" />
    <radialGradient
   id="radialGradient672"
   xlink:href="#linearGradient668" />
  </defs>
  
  <g
   id="g666">
    <path
   d="M 124.62761 92.865616 A 38.007004 15.246998 0 1 1  48.613602,92.865616 A 38.007004 15.246998 0 1 1  124.62761 92.865616 z"
   style="font-size:12px;fill:none;fill-rule:evenodd;stroke:#ff0000;stroke-width:7.50000000000000000;fill-opacity:1;opacity:1"
   id="path692"
   transform="matrix(0.928695,0,0,1.417564,8.00273,-31.08487)" />
    <path
   d="M 72.4785,79.3864 C 34.9134,21.0501 34.9134,21.0501 34.9134,21.0501"
   transform="matrix(1.411764,0,0,0.833773,-11.72443,12.31231)"
   style="font-size:12px;fill:none;fill-rule:evenodd;stroke:#ff0000;stroke-width:7.5"
   id="path693" />
    <g
   id="g660">
      <path
   d="M 40.442997 41.068401 A 16.677525 14.801304 0 1 1  7.0879478,41.068401 A 16.677525 14.801304 0 1 1  40.442997 41.068401 z"
   style="font-size:12px;fill:none;fill-rule:evenodd;stroke:#ff0000;stroke-width:7.50000000000000000;fill-opacity:1"
   id="path676"
   transform="matrix(1.013258,0,0,1.024898,-2.648489,-22.2446)" />
      <path
   d="M 21.6808,37.9414 C 21.6808,72.9642 21.6808,73.3811 21.6808,73.3811"
   transform="translate(-0.149714,-2.803091)"
   style="font-size:12px;fill:#ffffc6;fill-rule:evenodd;stroke:#ff0000;stroke-width:7.5"
   id="path678" />
      <path
   d="M 21.8167,72.8687 C 6.04381,92.769 6.04381,92.769 6.04381,92.769"
   transform="matrix(1.140186,0,0,1.081482,-3.208123,-8.740551)"
   style="font-size:12px;fill:none;fill-rule:evenodd;stroke:#ff0000;stroke-width:7.5"
   id="path679" />
      <path
   d="M 21.8167,72.8687 C 6.04381,92.769 6.04381,92.769 6.04381,92.769"
   transform="matrix(-0.325459,1.00994,-1.143542,-0.287436,129.3098,90.41549)"
   style="font-size:12px;fill:none;fill-rule:evenodd;stroke:#ff0000;stroke-width:7.5"
   id="path680" />
      <path
   d="M 21.8167,72.8687 C 6.04381,92.769 6.04381,92.769 6.04381,92.769"
   transform="matrix(0.907775,0.89215,-1.392062,0.707907,123.9441,-17.7213)"
   style="font-size:12px;fill:none;fill-rule:evenodd;stroke:#ff0000;stroke-width:7.5"
   id="path685" />
    </g>
  </g>
</svg>